<?xml version="1.0" encoding="UTF-8"?>
<svg xmlns="http://www.w3.org/2000/svg" viewBox="0 0 210 297" width="210mm" height="297mm">
<rect width="210" height="297" fill="#e8e8e8"/>
<text x="105" y="8" font-size="4.5" fill="#555" text-anchor="middle" font-family="Arial">TOFTA — Misc Cards (Grey)</text>
<rect x="10.5" y="14.0" width="45" height="65" fill="#f7fafc" stroke="#4a5568" stroke-width="0.7" rx="1.5"/>
<rect x="10.5" y="14.0" width="45" height="9" fill="#4a5568" rx="1.5"/>
<rect x="10.5" y="19.0" width="45" height="4" fill="#4a5568"/>
<text x="12.5" y="20.5" font-size="3.2" font-weight="bold" fill="white" font-family="Arial">Misc</text>
<rect x="42.5" y="15.0" width="11" height="7" fill="rgba(0,0,0,0.25)" rx="1"/>
<text x="48.0" y="20.5" font-size="3.5" fill="white" text-anchor="middle" font-family="Arial">Era I</text>
<text x="33.0" y="29.0" font-size="5" font-weight="bold" fill="#4a5568" text-anchor="middle" font-family="Arial">Fishing Fleet</text>
<text x="12.5" y="33.0" font-size="3" fill="#718096" font-family="Arial" font-weight="bold">Cost: </text>
<text x="22.5" y="33.0" font-size="3" fill="#2d3748" font-family="Arial">3g OR 1 wood</text>
<line x1="12.5" y1="37.0" x2="53.5" y2="37.0" stroke="#718096" stroke-width="0.3"/>
<text x="12.5" y="40.5" font-size="3.0" fill="#2d3748" font-family="Arial">Conquer water tiles (requires attack</text>
<text x="12.5" y="44.3" font-size="2.7" fill="#2d3748" font-family="Arial">action). Ocean tiles require Harbor or</text>
<text x="12.5" y="48.1" font-size="3.0" fill="#2d3748" font-family="Arial">Navy.</text>
<rect x="10.5" y="76.0" width="45" height="3" fill="#4a5568" rx="1"/>
<rect x="10.5" y="74.0" width="45" height="2" fill="#4a5568"/>
<line x1="9.0" y1="14.0" x2="12.0" y2="14.0" stroke="#ccc" stroke-width="0.3"/>
<line x1="10.5" y1="12.5" x2="10.5" y2="15.5" stroke="#ccc" stroke-width="0.3"/>
<line x1="54.0" y1="14.0" x2="57.0" y2="14.0" stroke="#ccc" stroke-width="0.3"/>
<line x1="55.5" y1="12.5" x2="55.5" y2="15.5" stroke="#ccc" stroke-width="0.3"/>
<line x1="9.0" y1="79.0" x2="12.0" y2="79.0" stroke="#ccc" stroke-width="0.3"/>
<line x1="10.5" y1="77.5" x2="10.5" y2="80.5" stroke="#ccc" stroke-width="0.3"/>
<line x1="54.0" y1="79.0" x2="57.0" y2="79.0" stroke="#ccc" stroke-width="0.3"/>
<line x1="55.5" y1="77.5" x2="55.5" y2="80.5" stroke="#ccc" stroke-width="0.3"/>
<rect x="58.5" y="14.0" width="45" height="65" fill="#f7fafc" stroke="#4a5568" stroke-width="0.7" rx="1.5"/>
<rect x="58.5" y="14.0" width="45" height="9" fill="#4a5568" rx="1.5"/>
<rect x="58.5" y="19.0" width="45" height="4" fill="#4a5568"/>
<text x="60.5" y="20.5" font-size="3.2" font-weight="bold" fill="white" font-family="Arial">Misc</text>
<rect x="90.5" y="15.0" width="11" height="7" fill="rgba(0,0,0,0.25)" rx="1"/>
<text x="96.0" y="20.5" font-size="3.5" fill="white" text-anchor="middle" font-family="Arial">Era I</text>
<text x="81.0" y="29.0" font-size="5" font-weight="bold" fill="#4a5568" text-anchor="middle" font-family="Arial">Pillage</text>
<text x="60.5" y="33.0" font-size="3" fill="#718096" font-family="Arial" font-weight="bold">Cost: </text>
<text x="70.5" y="33.0" font-size="3" fill="#2d3748" font-family="Arial">3g OR 1 food</text>
<line x1="60.5" y1="37.0" x2="101.5" y2="37.0" stroke="#718096" stroke-width="0.3"/>
<text x="60.5" y="40.5" font-size="2.7" fill="#2d3748" font-family="Arial">When you successfully conquer a region</text>
<text x="60.5" y="44.3" font-size="3.0" fill="#2d3748" font-family="Arial">this era, gain gold equal to its</text>
<text x="60.5" y="48.1" font-size="3.0" fill="#2d3748" font-family="Arial">taxation value.</text>
<rect x="58.5" y="76.0" width="45" height="3" fill="#4a5568" rx="1"/>
<rect x="58.5" y="74.0" width="45" height="2" fill="#4a5568"/>
<line x1="57.0" y1="14.0" x2="60.0" y2="14.0" stroke="#ccc" stroke-width="0.3"/>
<line x1="58.5" y1="12.5" x2="58.5" y2="15.5" stroke="#ccc" stroke-width="0.3"/>
<line x1="102.0" y1="14.0" x2="105.0" y2="14.0" stroke="#ccc" stroke-width="0.3"/>
<line x1="103.5" y1="12.5" x2="103.5" y2="15.5" stroke="#ccc" stroke-width="0.3"/>
<line x1="57.0" y1="79.0" x2="60.0" y2="79.0" stroke="#ccc" stroke-width="0.3"/>
<line x1="58.5" y1="77.5" x2="58.5" y2="80.5" stroke="#ccc" stroke-width="0.3"/>
<line x1="102.0" y1="79.0" x2="105.0" y2="79.0" stroke="#ccc" stroke-width="0.3"/>
<line x1="103.5" y1="77.5" x2="103.5" y2="80.5" stroke="#ccc" stroke-width="0.3"/>
<rect x="106.5" y="14.0" width="45" height="65" fill="#f7fafc" stroke="#4a5568" stroke-width="0.7" rx="1.5"/>
<rect x="106.5" y="14.0" width="45" height="9" fill="#4a5568" rx="1.5"/>
<rect x="106.5" y="19.0" width="45" height="4" fill="#4a5568"/>
<text x="108.5" y="20.5" font-size="3.2" font-weight="bold" fill="white" font-family="Arial">Misc</text>
<rect x="138.5" y="15.0" width="11" height="7" fill="rgba(0,0,0,0.25)" rx="1"/>
<text x="144.0" y="20.5" font-size="3.5" fill="white" text-anchor="middle" font-family="Arial">Era I</text>
<text x="129.0" y="29.0" font-size="5" font-weight="bold" fill="#4a5568" text-anchor="middle" font-family="Arial">Vanguard</text>
<text x="108.5" y="33.0" font-size="3" fill="#718096" font-family="Arial" font-weight="bold">Cost: </text>
<text x="118.5" y="33.0" font-size="3" fill="#2d3748" font-family="Arial">3g OR 1 food</text>
<line x1="108.5" y1="37.0" x2="149.5" y2="37.0" stroke="#718096" stroke-width="0.3"/>
<text x="108.5" y="40.5" font-size="2.7" fill="#2d3748" font-family="Arial">Once per era: abandon up to 2 regions,</text>
<text x="108.5" y="44.3" font-size="3.0" fill="#2d3748" font-family="Arial">then immediately claim 1 adjacent</text>
<text x="108.5" y="48.1" font-size="3.0" fill="#2d3748" font-family="Arial">independent region without an attack</text>
<text x="108.5" y="51.9" font-size="3.0" fill="#2d3748" font-family="Arial">action.</text>
<rect x="106.5" y="76.0" width="45" height="3" fill="#4a5568" rx="1"/>
<rect x="106.5" y="74.0" width="45" height="2" fill="#4a5568"/>
<line x1="105.0" y1="14.0" x2="108.0" y2="14.0" stroke="#ccc" stroke-width="0.3"/>
<line x1="106.5" y1="12.5" x2="106.5" y2="15.5" stroke="#ccc" stroke-width="0.3"/>
<line x1="150.0" y1="14.0" x2="153.0" y2="14.0" stroke="#ccc" stroke-width="0.3"/>
<line x1="151.5" y1="12.5" x2="151.5" y2="15.5" stroke="#ccc" stroke-width="0.3"/>
<line x1="105.0" y1="79.0" x2="108.0" y2="79.0" stroke="#ccc" stroke-width="0.3"/>
<line x1="106.5" y1="77.5" x2="106.5" y2="80.5" stroke="#ccc" stroke-width="0.3"/>
<line x1="150.0" y1="79.0" x2="153.0" y2="79.0" stroke="#ccc" stroke-width="0.3"/>
<line x1="151.5" y1="77.5" x2="151.5" y2="80.5" stroke="#ccc" stroke-width="0.3"/>
<rect x="154.5" y="14.0" width="45" height="65" fill="#f7fafc" stroke="#4a5568" stroke-width="0.7" rx="1.5"/>
<rect x="154.5" y="14.0" width="45" height="9" fill="#4a5568" rx="1.5"/>
<rect x="154.5" y="19.0" width="45" height="4" fill="#4a5568"/>
<text x="156.5" y="20.5" font-size="3.2" font-weight="bold" fill="white" font-family="Arial">Misc</text>
<rect x="186.5" y="15.0" width="11" height="7" fill="rgba(0,0,0,0.25)" rx="1"/>
<text x="192.0" y="20.5" font-size="3.5" fill="white" text-anchor="middle" font-family="Arial">Era I</text>
<text x="177.0" y="29.0" font-size="5" font-weight="bold" fill="#4a5568" text-anchor="middle" font-family="Arial">Traveling Scholar</text>
<text x="156.5" y="33.0" font-size="3" fill="#718096" font-family="Arial" font-weight="bold">Cost: </text>
<text x="166.5" y="33.0" font-size="3" fill="#2d3748" font-family="Arial">3g OR 1 food</text>
<line x1="156.5" y1="37.0" x2="197.5" y2="37.0" stroke="#718096" stroke-width="0.3"/>
<text x="156.5" y="40.5" font-size="2.7" fill="#2d3748" font-family="Arial">Draft and Cull actions cost 1 less gold</text>
<text x="156.5" y="44.3" font-size="3.0" fill="#2d3748" font-family="Arial">(minimum 1 gold).</text>
<rect x="154.5" y="76.0" width="45" height="3" fill="#4a5568" rx="1"/>
<rect x="154.5" y="74.0" width="45" height="2" fill="#4a5568"/>
<line x1="153.0" y1="14.0" x2="156.0" y2="14.0" stroke="#ccc" stroke-width="0.3"/>
<line x1="154.5" y1="12.5" x2="154.5" y2="15.5" stroke="#ccc" stroke-width="0.3"/>
<line x1="198.0" y1="14.0" x2="201.0" y2="14.0" stroke="#ccc" stroke-width="0.3"/>
<line x1="199.5" y1="12.5" x2="199.5" y2="15.5" stroke="#ccc" stroke-width="0.3"/>
<line x1="153.0" y1="79.0" x2="156.0" y2="79.0" stroke="#ccc" stroke-width="0.3"/>
<line x1="154.5" y1="77.5" x2="154.5" y2="80.5" stroke="#ccc" stroke-width="0.3"/>
<line x1="198.0" y1="79.0" x2="201.0" y2="79.0" stroke="#ccc" stroke-width="0.3"/>
<line x1="199.5" y1="77.5" x2="199.5" y2="80.5" stroke="#ccc" stroke-width="0.3"/>
<rect x="10.5" y="82.0" width="45" height="65" fill="#f7fafc" stroke="#4a5568" stroke-width="0.7" rx="1.5"/>
<rect x="10.5" y="82.0" width="45" height="9" fill="#4a5568" rx="1.5"/>
<rect x="10.5" y="87.0" width="45" height="4" fill="#4a5568"/>
<text x="12.5" y="88.5" font-size="3.2" font-weight="bold" fill="white" font-family="Arial">Misc</text>
<rect x="42.5" y="83.0" width="11" height="7" fill="rgba(0,0,0,0.25)" rx="1"/>
<text x="48.0" y="88.5" font-size="3.5" fill="white" text-anchor="middle" font-family="Arial">Era II</text>
<text x="33.0" y="97.0" font-size="5" font-weight="bold" fill="#4a5568" text-anchor="middle" font-family="Arial">Cavalry</text>
<text x="12.5" y="101.0" font-size="3" fill="#718096" font-family="Arial" font-weight="bold">Cost: </text>
<text x="22.5" y="101.0" font-size="3" fill="#2d3748" font-family="Arial">6g OR 2 food</text>
<line x1="12.5" y1="105.0" x2="53.5" y2="105.0" stroke="#718096" stroke-width="0.3"/>
<text x="12.5" y="108.5" font-size="3.0" fill="#2d3748" font-family="Arial">Once per era: attack a territory not</text>
<text x="12.5" y="112.3" font-size="3.0" fill="#2d3748" font-family="Arial">adjacent to your empire.</text>
<rect x="10.5" y="144.0" width="45" height="3" fill="#4a5568" rx="1"/>
<rect x="10.5" y="142.0" width="45" height="2" fill="#4a5568"/>
<line x1="9.0" y1="82.0" x2="12.0" y2="82.0" stroke="#ccc" stroke-width="0.3"/>
<line x1="10.5" y1="80.5" x2="10.5" y2="83.5" stroke="#ccc" stroke-width="0.3"/>
<line x1="54.0" y1="82.0" x2="57.0" y2="82.0" stroke="#ccc" stroke-width="0.3"/>
<line x1="55.5" y1="80.5" x2="55.5" y2="83.5" stroke="#ccc" stroke-width="0.3"/>
<line x1="9.0" y1="147.0" x2="12.0" y2="147.0" stroke="#ccc" stroke-width="0.3"/>
<line x1="10.5" y1="145.5" x2="10.5" y2="148.5" stroke="#ccc" stroke-width="0.3"/>
<line x1="54.0" y1="147.0" x2="57.0" y2="147.0" stroke="#ccc" stroke-width="0.3"/>
<line x1="55.5" y1="145.5" x2="55.5" y2="148.5" stroke="#ccc" stroke-width="0.3"/>
<rect x="58.5" y="82.0" width="45" height="65" fill="#f7fafc" stroke="#4a5568" stroke-width="0.7" rx="1.5"/>
<rect x="58.5" y="82.0" width="45" height="9" fill="#4a5568" rx="1.5"/>
<rect x="58.5" y="87.0" width="45" height="4" fill="#4a5568"/>
<text x="60.5" y="88.5" font-size="3.2" font-weight="bold" fill="white" font-family="Arial">Misc</text>
<rect x="90.5" y="83.0" width="11" height="7" fill="rgba(0,0,0,0.25)" rx="1"/>
<text x="96.0" y="88.5" font-size="3.5" fill="white" text-anchor="middle" font-family="Arial">Era II</text>
<text x="81.0" y="97.0" font-size="5" font-weight="bold" fill="#4a5568" text-anchor="middle" font-family="Arial">Espionage</text>
<text x="60.5" y="101.0" font-size="3" fill="#718096" font-family="Arial" font-weight="bold">Cost: </text>
<text x="70.5" y="101.0" font-size="3" fill="#2d3748" font-family="Arial">5g OR 1 paper</text>
<line x1="60.5" y1="105.0" x2="101.5" y2="105.0" stroke="#718096" stroke-width="0.3"/>
<text x="60.5" y="108.5" font-size="3.0" fill="#2d3748" font-family="Arial">Once per era: steal 1 resource or</text>
<text x="60.5" y="112.3" font-size="3.0" fill="#2d3748" font-family="Arial">commodity from a player you share a</text>
<text x="60.5" y="116.1" font-size="3.0" fill="#2d3748" font-family="Arial">border with (they lose it).</text>
<rect x="58.5" y="144.0" width="45" height="3" fill="#4a5568" rx="1"/>
<rect x="58.5" y="142.0" width="45" height="2" fill="#4a5568"/>
<line x1="57.0" y1="82.0" x2="60.0" y2="82.0" stroke="#ccc" stroke-width="0.3"/>
<line x1="58.5" y1="80.5" x2="58.5" y2="83.5" stroke="#ccc" stroke-width="0.3"/>
<line x1="102.0" y1="82.0" x2="105.0" y2="82.0" stroke="#ccc" stroke-width="0.3"/>
<line x1="103.5" y1="80.5" x2="103.5" y2="83.5" stroke="#ccc" stroke-width="0.3"/>
<line x1="57.0" y1="147.0" x2="60.0" y2="147.0" stroke="#ccc" stroke-width="0.3"/>
<line x1="58.5" y1="145.5" x2="58.5" y2="148.5" stroke="#ccc" stroke-width="0.3"/>
<line x1="102.0" y1="147.0" x2="105.0" y2="147.0" stroke="#ccc" stroke-width="0.3"/>
<line x1="103.5" y1="145.5" x2="103.5" y2="148.5" stroke="#ccc" stroke-width="0.3"/>
<rect x="106.5" y="82.0" width="45" height="65" fill="#f7fafc" stroke="#4a5568" stroke-width="0.7" rx="1.5"/>
<rect x="106.5" y="82.0" width="45" height="9" fill="#4a5568" rx="1.5"/>
<rect x="106.5" y="87.0" width="45" height="4" fill="#4a5568"/>
<text x="108.5" y="88.5" font-size="3.2" font-weight="bold" fill="white" font-family="Arial">Misc</text>
<rect x="138.5" y="83.0" width="11" height="7" fill="rgba(0,0,0,0.25)" rx="1"/>
<text x="144.0" y="88.5" font-size="3.5" fill="white" text-anchor="middle" font-family="Arial">Era II</text>
<text x="129.0" y="97.0" font-size="5" font-weight="bold" fill="#4a5568" text-anchor="middle" font-family="Arial">Recruiting Officer</text>
<text x="108.5" y="101.0" font-size="3" fill="#718096" font-family="Arial" font-weight="bold">Cost: </text>
<text x="118.5" y="101.0" font-size="3" fill="#2d3748" font-family="Arial">6g OR 1 food + 1 cloth</text>
<line x1="108.5" y1="105.0" x2="149.5" y2="105.0" stroke="#718096" stroke-width="0.3"/>
<text x="108.5" y="108.5" font-size="2.7" fill="#2d3748" font-family="Arial">Once per era: perform a Draft action at</text>
<text x="108.5" y="112.3" font-size="3.0" fill="#2d3748" font-family="Arial">no market action or gold cost.</text>
<rect x="106.5" y="144.0" width="45" height="3" fill="#4a5568" rx="1"/>
<rect x="106.5" y="142.0" width="45" height="2" fill="#4a5568"/>
<line x1="105.0" y1="82.0" x2="108.0" y2="82.0" stroke="#ccc" stroke-width="0.3"/>
<line x1="106.5" y1="80.5" x2="106.5" y2="83.5" stroke="#ccc" stroke-width="0.3"/>
<line x1="150.0" y1="82.0" x2="153.0" y2="82.0" stroke="#ccc" stroke-width="0.3"/>
<line x1="151.5" y1="80.5" x2="151.5" y2="83.5" stroke="#ccc" stroke-width="0.3"/>
<line x1="105.0" y1="147.0" x2="108.0" y2="147.0" stroke="#ccc" stroke-width="0.3"/>
<line x1="106.5" y1="145.5" x2="106.5" y2="148.5" stroke="#ccc" stroke-width="0.3"/>
<line x1="150.0" y1="147.0" x2="153.0" y2="147.0" stroke="#ccc" stroke-width="0.3"/>
<line x1="151.5" y1="145.5" x2="151.5" y2="148.5" stroke="#ccc" stroke-width="0.3"/>
<rect x="154.5" y="82.0" width="45" height="65" fill="#f7fafc" stroke="#4a5568" stroke-width="0.7" rx="1.5"/>
<rect x="154.5" y="82.0" width="45" height="9" fill="#4a5568" rx="1.5"/>
<rect x="154.5" y="87.0" width="45" height="4" fill="#4a5568"/>
<text x="156.5" y="88.5" font-size="3.2" font-weight="bold" fill="white" font-family="Arial">Misc</text>
<rect x="186.5" y="83.0" width="11" height="7" fill="rgba(0,0,0,0.25)" rx="1"/>
<text x="192.0" y="88.5" font-size="3.5" fill="white" text-anchor="middle" font-family="Arial">Era II</text>
<text x="177.0" y="95.0" font-size="4.5" font-weight="bold" fill="#4a5568" text-anchor="middle" font-family="Arial">Strategic</text>
<text x="177.0" y="100.0" font-size="4.5" font-weight="bold" fill="#4a5568" text-anchor="middle" font-family="Arial">Withdrawal</text>
<text x="156.5" y="104.0" font-size="3" fill="#718096" font-family="Arial" font-weight="bold">Cost: </text>
<text x="166.5" y="104.0" font-size="3" fill="#2d3748" font-family="Arial">7g OR 1 food + 1 cloth</text>
<line x1="156.5" y1="108.0" x2="197.5" y2="108.0" stroke="#718096" stroke-width="0.3"/>
<text x="156.5" y="111.5" font-size="2.7" fill="#2d3748" font-family="Arial">Once per era: abandon up to 3 regions,</text>
<text x="156.5" y="115.3" font-size="3.0" fill="#2d3748" font-family="Arial">then immediately claim 2 adjacent</text>
<text x="156.5" y="119.1" font-size="3.0" fill="#2d3748" font-family="Arial">independent regions without attack</text>
<text x="156.5" y="122.9" font-size="3.0" fill="#2d3748" font-family="Arial">actions.</text>
<rect x="154.5" y="144.0" width="45" height="3" fill="#4a5568" rx="1"/>
<rect x="154.5" y="142.0" width="45" height="2" fill="#4a5568"/>
<line x1="153.0" y1="82.0" x2="156.0" y2="82.0" stroke="#ccc" stroke-width="0.3"/>
<line x1="154.5" y1="80.5" x2="154.5" y2="83.5" stroke="#ccc" stroke-width="0.3"/>
<line x1="198.0" y1="82.0" x2="201.0" y2="82.0" stroke="#ccc" stroke-width="0.3"/>
<line x1="199.5" y1="80.5" x2="199.5" y2="83.5" stroke="#ccc" stroke-width="0.3"/>
<line x1="153.0" y1="147.0" x2="156.0" y2="147.0" stroke="#ccc" stroke-width="0.3"/>
<line x1="154.5" y1="145.5" x2="154.5" y2="148.5" stroke="#ccc" stroke-width="0.3"/>
<line x1="198.0" y1="147.0" x2="201.0" y2="147.0" stroke="#ccc" stroke-width="0.3"/>
<line x1="199.5" y1="145.5" x2="199.5" y2="148.5" stroke="#ccc" stroke-width="0.3"/>
<rect x="10.5" y="150.0" width="45" height="65" fill="#f7fafc" stroke="#4a5568" stroke-width="0.7" rx="1.5"/>
<rect x="10.5" y="150.0" width="45" height="9" fill="#4a5568" rx="1.5"/>
<rect x="10.5" y="155.0" width="45" height="4" fill="#4a5568"/>
<text x="12.5" y="156.5" font-size="3.2" font-weight="bold" fill="white" font-family="Arial">Misc</text>
<rect x="42.5" y="151.0" width="11" height="7" fill="rgba(0,0,0,0.25)" rx="1"/>
<text x="48.0" y="156.5" font-size="3.5" fill="white" text-anchor="middle" font-family="Arial">Era II</text>
<text x="33.0" y="165.0" font-size="5" font-weight="bold" fill="#4a5568" text-anchor="middle" font-family="Arial">Supply Lines</text>
<text x="12.5" y="169.0" font-size="3" fill="#718096" font-family="Arial" font-weight="bold">Cost: </text>
<text x="22.5" y="169.0" font-size="3" fill="#2d3748" font-family="Arial">7g OR 1 food + 1 cloth</text>
<line x1="12.5" y1="173.0" x2="53.5" y2="173.0" stroke="#718096" stroke-width="0.3"/>
<text x="12.5" y="176.5" font-size="3.0" fill="#2d3748" font-family="Arial">Isolated regions (no path to Capitol)</text>
<text x="12.5" y="180.3" font-size="2.7" fill="#2d3748" font-family="Arial">generate half taxation instead of none.</text>
<rect x="10.5" y="212.0" width="45" height="3" fill="#4a5568" rx="1"/>
<rect x="10.5" y="210.0" width="45" height="2" fill="#4a5568"/>
<line x1="9.0" y1="150.0" x2="12.0" y2="150.0" stroke="#ccc" stroke-width="0.3"/>
<line x1="10.5" y1="148.5" x2="10.5" y2="151.5" stroke="#ccc" stroke-width="0.3"/>
<line x1="54.0" y1="150.0" x2="57.0" y2="150.0" stroke="#ccc" stroke-width="0.3"/>
<line x1="55.5" y1="148.5" x2="55.5" y2="151.5" stroke="#ccc" stroke-width="0.3"/>
<line x1="9.0" y1="215.0" x2="12.0" y2="215.0" stroke="#ccc" stroke-width="0.3"/>
<line x1="10.5" y1="213.5" x2="10.5" y2="216.5" stroke="#ccc" stroke-width="0.3"/>
<line x1="54.0" y1="215.0" x2="57.0" y2="215.0" stroke="#ccc" stroke-width="0.3"/>
<line x1="55.5" y1="213.5" x2="55.5" y2="216.5" stroke="#ccc" stroke-width="0.3"/>
<rect x="58.5" y="150.0" width="45" height="65" fill="#f7fafc" stroke="#4a5568" stroke-width="0.7" rx="1.5"/>
<rect x="58.5" y="150.0" width="45" height="9" fill="#4a5568" rx="1.5"/>
<rect x="58.5" y="155.0" width="45" height="4" fill="#4a5568"/>
<text x="60.5" y="156.5" font-size="3.2" font-weight="bold" fill="white" font-family="Arial">Misc</text>
<rect x="90.5" y="151.0" width="11" height="7" fill="rgba(0,0,0,0.25)" rx="1"/>
<text x="96.0" y="156.5" font-size="3.5" fill="white" text-anchor="middle" font-family="Arial">Era III</text>
<text x="81.0" y="165.0" font-size="5" font-weight="bold" fill="#4a5568" text-anchor="middle" font-family="Arial">Grand Migration</text>
<text x="60.5" y="169.0" font-size="3" fill="#718096" font-family="Arial" font-weight="bold">Cost: </text>
<text x="70.5" y="169.0" font-size="3" fill="#2d3748" font-family="Arial">11g OR 2 paper + 1 food</text>
<line x1="60.5" y1="173.0" x2="101.5" y2="173.0" stroke="#718096" stroke-width="0.3"/>
<text x="60.5" y="176.5" font-size="3.0" fill="#2d3748" font-family="Arial">Once per era: abandon any number of</text>
<text x="60.5" y="180.3" font-size="2.7" fill="#2d3748" font-family="Arial">regions, then claim up to half (rounded</text>
<text x="60.5" y="184.1" font-size="3.0" fill="#2d3748" font-family="Arial">down) independent regions anywhere on</text>
<text x="60.5" y="187.9" font-size="3.0" fill="#2d3748" font-family="Arial">the map without attack actions.</text>
<rect x="58.5" y="212.0" width="45" height="3" fill="#4a5568" rx="1"/>
<rect x="58.5" y="210.0" width="45" height="2" fill="#4a5568"/>
<line x1="57.0" y1="150.0" x2="60.0" y2="150.0" stroke="#ccc" stroke-width="0.3"/>
<line x1="58.5" y1="148.5" x2="58.5" y2="151.5" stroke="#ccc" stroke-width="0.3"/>
<line x1="102.0" y1="150.0" x2="105.0" y2="150.0" stroke="#ccc" stroke-width="0.3"/>
<line x1="103.5" y1="148.5" x2="103.5" y2="151.5" stroke="#ccc" stroke-width="0.3"/>
<line x1="57.0" y1="215.0" x2="60.0" y2="215.0" stroke="#ccc" stroke-width="0.3"/>
<line x1="58.5" y1="213.5" x2="58.5" y2="216.5" stroke="#ccc" stroke-width="0.3"/>
<line x1="102.0" y1="215.0" x2="105.0" y2="215.0" stroke="#ccc" stroke-width="0.3"/>
<line x1="103.5" y1="213.5" x2="103.5" y2="216.5" stroke="#ccc" stroke-width="0.3"/>
<rect x="106.5" y="150.0" width="45" height="65" fill="#f7fafc" stroke="#4a5568" stroke-width="0.7" rx="1.5"/>
<rect x="106.5" y="150.0" width="45" height="9" fill="#4a5568" rx="1.5"/>
<rect x="106.5" y="155.0" width="45" height="4" fill="#4a5568"/>
<text x="108.5" y="156.5" font-size="3.2" font-weight="bold" fill="white" font-family="Arial">Misc</text>
<rect x="138.5" y="151.0" width="11" height="7" fill="rgba(0,0,0,0.25)" rx="1"/>
<text x="144.0" y="156.5" font-size="3.5" fill="white" text-anchor="middle" font-family="Arial">Era III</text>
<text x="129.0" y="165.0" font-size="5" font-weight="bold" fill="#4a5568" text-anchor="middle" font-family="Arial">Corsairs</text>
<text x="108.5" y="169.0" font-size="3" fill="#718096" font-family="Arial" font-weight="bold">Cost: </text>
<text x="118.5" y="169.0" font-size="3" fill="#2d3748" font-family="Arial">8g OR 1 iron + 1 wood</text>
<line x1="108.5" y1="173.0" x2="149.5" y2="173.0" stroke="#718096" stroke-width="0.3"/>
<text x="108.5" y="176.5" font-size="2.7" fill="#2d3748" font-family="Arial">Once per era: raid an opponent's region</text>
<text x="108.5" y="180.3" font-size="2.7" fill="#2d3748" font-family="Arial">adjacent to water or ocean — steal gold</text>
<text x="108.5" y="184.1" font-size="2.7" fill="#2d3748" font-family="Arial">equal to that region's taxation value.</text>
<rect x="106.5" y="212.0" width="45" height="3" fill="#4a5568" rx="1"/>
<rect x="106.5" y="210.0" width="45" height="2" fill="#4a5568"/>
<line x1="105.0" y1="150.0" x2="108.0" y2="150.0" stroke="#ccc" stroke-width="0.3"/>
<line x1="106.5" y1="148.5" x2="106.5" y2="151.5" stroke="#ccc" stroke-width="0.3"/>
<line x1="150.0" y1="150.0" x2="153.0" y2="150.0" stroke="#ccc" stroke-width="0.3"/>
<line x1="151.5" y1="148.5" x2="151.5" y2="151.5" stroke="#ccc" stroke-width="0.3"/>
<line x1="105.0" y1="215.0" x2="108.0" y2="215.0" stroke="#ccc" stroke-width="0.3"/>
<line x1="106.5" y1="213.5" x2="106.5" y2="216.5" stroke="#ccc" stroke-width="0.3"/>
<line x1="150.0" y1="215.0" x2="153.0" y2="215.0" stroke="#ccc" stroke-width="0.3"/>
<line x1="151.5" y1="213.5" x2="151.5" y2="216.5" stroke="#ccc" stroke-width="0.3"/>
<rect x="154.5" y="150.0" width="45" height="65" fill="#f7fafc" stroke="#4a5568" stroke-width="0.7" rx="1.5"/>
<rect x="154.5" y="150.0" width="45" height="9" fill="#4a5568" rx="1.5"/>
<rect x="154.5" y="155.0" width="45" height="4" fill="#4a5568"/>
<text x="156.5" y="156.5" font-size="3.2" font-weight="bold" fill="white" font-family="Arial">Misc</text>
<rect x="186.5" y="151.0" width="11" height="7" fill="rgba(0,0,0,0.25)" rx="1"/>
<text x="192.0" y="156.5" font-size="3.5" fill="white" text-anchor="middle" font-family="Arial">Era III</text>
<text x="177.0" y="165.0" font-size="5" font-weight="bold" fill="#4a5568" text-anchor="middle" font-family="Arial">Navy</text>
<text x="156.5" y="169.0" font-size="3" fill="#718096" font-family="Arial" font-weight="bold">Cost: </text>
<text x="166.5" y="169.0" font-size="3" fill="#2d3748" font-family="Arial">10g OR 2 wood + 1 iron</text>
<line x1="156.5" y1="173.0" x2="197.5" y2="173.0" stroke="#718096" stroke-width="0.3"/>
<text x="156.5" y="176.5" font-size="2.7" fill="#2d3748" font-family="Arial">Full ocean access. +1 attack action per</text>
<text x="156.5" y="180.3" font-size="3.0" fill="#2d3748" font-family="Arial">era usable only on ocean and water</text>
<text x="156.5" y="184.1" font-size="3.0" fill="#2d3748" font-family="Arial">tiles.</text>
<rect x="154.5" y="212.0" width="45" height="3" fill="#4a5568" rx="1"/>
<rect x="154.5" y="210.0" width="45" height="2" fill="#4a5568"/>
<line x1="153.0" y1="150.0" x2="156.0" y2="150.0" stroke="#ccc" stroke-width="0.3"/>
<line x1="154.5" y1="148.5" x2="154.5" y2="151.5" stroke="#ccc" stroke-width="0.3"/>
<line x1="198.0" y1="150.0" x2="201.0" y2="150.0" stroke="#ccc" stroke-width="0.3"/>
<line x1="199.5" y1="148.5" x2="199.5" y2="151.5" stroke="#ccc" stroke-width="0.3"/>
<line x1="153.0" y1="215.0" x2="156.0" y2="215.0" stroke="#ccc" stroke-width="0.3"/>
<line x1="154.5" y1="213.5" x2="154.5" y2="216.5" stroke="#ccc" stroke-width="0.3"/>
<line x1="198.0" y1="215.0" x2="201.0" y2="215.0" stroke="#ccc" stroke-width="0.3"/>
<line x1="199.5" y1="213.5" x2="199.5" y2="216.5" stroke="#ccc" stroke-width="0.3"/>
<rect x="10.5" y="218.0" width="45" height="65" fill="#f7fafc" stroke="#4a5568" stroke-width="0.7" rx="1.5"/>
<rect x="10.5" y="218.0" width="45" height="9" fill="#4a5568" rx="1.5"/>
<rect x="10.5" y="223.0" width="45" height="4" fill="#4a5568"/>
<text x="12.5" y="224.5" font-size="3.2" font-weight="bold" fill="white" font-family="Arial">Misc</text>
<rect x="42.5" y="219.0" width="11" height="7" fill="rgba(0,0,0,0.25)" rx="1"/>
<text x="48.0" y="224.5" font-size="3.5" fill="white" text-anchor="middle" font-family="Arial">Era III</text>
<text x="33.0" y="233.0" font-size="5" font-weight="bold" fill="#4a5568" text-anchor="middle" font-family="Arial">Martyrdom</text>
<text x="12.5" y="237.0" font-size="3" fill="#718096" font-family="Arial" font-weight="bold">Cost: </text>
<text x="22.5" y="237.0" font-size="3" fill="#2d3748" font-family="Arial">8g OR 1 cloth + 1 paper</text>
<line x1="12.5" y1="241.0" x2="53.5" y2="241.0" stroke="#718096" stroke-width="0.3"/>
<text x="12.5" y="244.5" font-size="3.0" fill="#2d3748" font-family="Arial">Each time an opponent conquers one of</text>
<text x="12.5" y="248.3" font-size="3.0" fill="#2d3748" font-family="Arial">your regions this era, gain +1 VP.</text>
<rect x="10.5" y="280.0" width="45" height="3" fill="#4a5568" rx="1"/>
<rect x="10.5" y="278.0" width="45" height="2" fill="#4a5568"/>
<line x1="9.0" y1="218.0" x2="12.0" y2="218.0" stroke="#ccc" stroke-width="0.3"/>
<line x1="10.5" y1="216.5" x2="10.5" y2="219.5" stroke="#ccc" stroke-width="0.3"/>
<line x1="54.0" y1="218.0" x2="57.0" y2="218.0" stroke="#ccc" stroke-width="0.3"/>
<line x1="55.5" y1="216.5" x2="55.5" y2="219.5" stroke="#ccc" stroke-width="0.3"/>
<line x1="9.0" y1="283.0" x2="12.0" y2="283.0" stroke="#ccc" stroke-width="0.3"/>
<line x1="10.5" y1="281.5" x2="10.5" y2="284.5" stroke="#ccc" stroke-width="0.3"/>
<line x1="54.0" y1="283.0" x2="57.0" y2="283.0" stroke="#ccc" stroke-width="0.3"/>
<line x1="55.5" y1="281.5" x2="55.5" y2="284.5" stroke="#ccc" stroke-width="0.3"/>
<rect x="58.5" y="218.0" width="45" height="65" fill="#f7fafc" stroke="#4a5568" stroke-width="0.7" rx="1.5"/>
<rect x="58.5" y="218.0" width="45" height="9" fill="#4a5568" rx="1.5"/>
<rect x="58.5" y="223.0" width="45" height="4" fill="#4a5568"/>
<text x="60.5" y="224.5" font-size="3.2" font-weight="bold" fill="white" font-family="Arial">Misc</text>
<rect x="90.5" y="219.0" width="11" height="7" fill="rgba(0,0,0,0.25)" rx="1"/>
<text x="96.0" y="224.5" font-size="3.5" fill="white" text-anchor="middle" font-family="Arial">Era III</text>
<text x="81.0" y="233.0" font-size="5" font-weight="bold" fill="#4a5568" text-anchor="middle" font-family="Arial">Inquisition</text>
<text x="60.5" y="237.0" font-size="3" fill="#718096" font-family="Arial" font-weight="bold">Cost: </text>
<text x="70.5" y="237.0" font-size="3" fill="#2d3748" font-family="Arial">8g OR 1 iron + 1 paper</text>
<line x1="60.5" y1="241.0" x2="101.5" y2="241.0" stroke="#718096" stroke-width="0.3"/>
<text x="60.5" y="244.5" font-size="2.7" fill="#2d3748" font-family="Arial">Once per era: remove any 1 card from the</text>
<text x="60.5" y="248.3" font-size="2.7" fill="#2d3748" font-family="Arial">market (that slot refills immediately).</text>
<text x="60.5" y="252.1" font-size="2.7" fill="#2d3748" font-family="Arial">Gain gold equal to half its gold cost,</text>
<text x="60.5" y="255.9" font-size="3.0" fill="#2d3748" font-family="Arial">rounded down.</text>
<rect x="58.5" y="280.0" width="45" height="3" fill="#4a5568" rx="1"/>
<rect x="58.5" y="278.0" width="45" height="2" fill="#4a5568"/>
<line x1="57.0" y1="218.0" x2="60.0" y2="218.0" stroke="#ccc" stroke-width="0.3"/>
<line x1="58.5" y1="216.5" x2="58.5" y2="219.5" stroke="#ccc" stroke-width="0.3"/>
<line x1="102.0" y1="218.0" x2="105.0" y2="218.0" stroke="#ccc" stroke-width="0.3"/>
<line x1="103.5" y1="216.5" x2="103.5" y2="219.5" stroke="#ccc" stroke-width="0.3"/>
<line x1="57.0" y1="283.0" x2="60.0" y2="283.0" stroke="#ccc" stroke-width="0.3"/>
<line x1="58.5" y1="281.5" x2="58.5" y2="284.5" stroke="#ccc" stroke-width="0.3"/>
<line x1="102.0" y1="283.0" x2="105.0" y2="283.0" stroke="#ccc" stroke-width="0.3"/>
<line x1="103.5" y1="281.5" x2="103.5" y2="284.5" stroke="#ccc" stroke-width="0.3"/>
</svg>