<?xml version="1.0" encoding="UTF-8"?>
<svg xmlns="http://www.w3.org/2000/svg" viewBox="0 0 210 297" width="210mm" height="297mm">
<rect width="210" height="297" fill="#e8e8e8"/>
<text x="105" y="8" font-size="4.5" fill="#555" text-anchor="middle" font-family="Arial">TOFTA — Science Cards (Lilac)</text>
<rect x="10.5" y="14.0" width="45" height="65" fill="#faf5ff" stroke="#553c9a" stroke-width="0.7" rx="1.5"/>
<rect x="10.5" y="14.0" width="45" height="9" fill="#553c9a" rx="1.5"/>
<rect x="10.5" y="19.0" width="45" height="4" fill="#553c9a"/>
<text x="12.5" y="20.5" font-size="3.2" font-weight="bold" fill="white" font-family="Arial">Science</text>
<rect x="42.5" y="15.0" width="11" height="7" fill="rgba(0,0,0,0.25)" rx="1"/>
<text x="48.0" y="20.5" font-size="3.5" fill="white" text-anchor="middle" font-family="Arial">Era I</text>
<text x="33.0" y="29.0" font-size="5" font-weight="bold" fill="#553c9a" text-anchor="middle" font-family="Arial">Cartography</text>
<text x="12.5" y="33.0" font-size="3" fill="#718096" font-family="Arial" font-weight="bold">Cost: </text>
<text x="22.5" y="33.0" font-size="3" fill="#2d3748" font-family="Arial">3g OR 1 food</text>
<line x1="12.5" y1="37.0" x2="53.5" y2="37.0" stroke="#805ad5" stroke-width="0.3"/>
<text x="12.5" y="40.5" font-size="2.7" fill="#2d3748" font-family="Arial">Once per era: look at the top 3 cards of</text>
<text x="12.5" y="44.3" font-size="2.7" fill="#2d3748" font-family="Arial">the current era deck, then return them</text>
<text x="12.5" y="48.1" font-size="3.0" fill="#2d3748" font-family="Arial">in any order.</text>
<rect x="10.5" y="76.0" width="45" height="3" fill="#553c9a" rx="1"/>
<rect x="10.5" y="74.0" width="45" height="2" fill="#553c9a"/>
<line x1="9.0" y1="14.0" x2="12.0" y2="14.0" stroke="#ccc" stroke-width="0.3"/>
<line x1="10.5" y1="12.5" x2="10.5" y2="15.5" stroke="#ccc" stroke-width="0.3"/>
<line x1="54.0" y1="14.0" x2="57.0" y2="14.0" stroke="#ccc" stroke-width="0.3"/>
<line x1="55.5" y1="12.5" x2="55.5" y2="15.5" stroke="#ccc" stroke-width="0.3"/>
<line x1="9.0" y1="79.0" x2="12.0" y2="79.0" stroke="#ccc" stroke-width="0.3"/>
<line x1="10.5" y1="77.5" x2="10.5" y2="80.5" stroke="#ccc" stroke-width="0.3"/>
<line x1="54.0" y1="79.0" x2="57.0" y2="79.0" stroke="#ccc" stroke-width="0.3"/>
<line x1="55.5" y1="77.5" x2="55.5" y2="80.5" stroke="#ccc" stroke-width="0.3"/>
<rect x="58.5" y="14.0" width="45" height="65" fill="#faf5ff" stroke="#553c9a" stroke-width="0.7" rx="1.5"/>
<rect x="58.5" y="14.0" width="45" height="9" fill="#553c9a" rx="1.5"/>
<rect x="58.5" y="19.0" width="45" height="4" fill="#553c9a"/>
<text x="60.5" y="20.5" font-size="3.2" font-weight="bold" fill="white" font-family="Arial">Science</text>
<rect x="90.5" y="15.0" width="11" height="7" fill="rgba(0,0,0,0.25)" rx="1"/>
<text x="96.0" y="20.5" font-size="3.5" fill="white" text-anchor="middle" font-family="Arial">Era I</text>
<text x="81.0" y="29.0" font-size="5" font-weight="bold" fill="#553c9a" text-anchor="middle" font-family="Arial">Dispatch</text>
<text x="60.5" y="33.0" font-size="3" fill="#718096" font-family="Arial" font-weight="bold">Cost: </text>
<text x="70.5" y="33.0" font-size="3" fill="#2d3748" font-family="Arial">3g OR 1 food</text>
<line x1="60.5" y1="37.0" x2="101.5" y2="37.0" stroke="#805ad5" stroke-width="0.3"/>
<text x="60.5" y="40.5" font-size="2.7" fill="#2d3748" font-family="Arial">+1 market action per era while on your</text>
<text x="60.5" y="44.3" font-size="3.0" fill="#2d3748" font-family="Arial">mat.</text>
<rect x="58.5" y="76.0" width="45" height="3" fill="#553c9a" rx="1"/>
<rect x="58.5" y="74.0" width="45" height="2" fill="#553c9a"/>
<line x1="57.0" y1="14.0" x2="60.0" y2="14.0" stroke="#ccc" stroke-width="0.3"/>
<line x1="58.5" y1="12.5" x2="58.5" y2="15.5" stroke="#ccc" stroke-width="0.3"/>
<line x1="102.0" y1="14.0" x2="105.0" y2="14.0" stroke="#ccc" stroke-width="0.3"/>
<line x1="103.5" y1="12.5" x2="103.5" y2="15.5" stroke="#ccc" stroke-width="0.3"/>
<line x1="57.0" y1="79.0" x2="60.0" y2="79.0" stroke="#ccc" stroke-width="0.3"/>
<line x1="58.5" y1="77.5" x2="58.5" y2="80.5" stroke="#ccc" stroke-width="0.3"/>
<line x1="102.0" y1="79.0" x2="105.0" y2="79.0" stroke="#ccc" stroke-width="0.3"/>
<line x1="103.5" y1="77.5" x2="103.5" y2="80.5" stroke="#ccc" stroke-width="0.3"/>
<rect x="106.5" y="14.0" width="45" height="65" fill="#faf5ff" stroke="#553c9a" stroke-width="0.7" rx="1.5"/>
<rect x="106.5" y="14.0" width="45" height="9" fill="#553c9a" rx="1.5"/>
<rect x="106.5" y="19.0" width="45" height="4" fill="#553c9a"/>
<text x="108.5" y="20.5" font-size="3.2" font-weight="bold" fill="white" font-family="Arial">Science</text>
<rect x="138.5" y="15.0" width="11" height="7" fill="rgba(0,0,0,0.25)" rx="1"/>
<text x="144.0" y="20.5" font-size="3.5" fill="white" text-anchor="middle" font-family="Arial">Era I</text>
<text x="129.0" y="29.0" font-size="5" font-weight="bold" fill="#553c9a" text-anchor="middle" font-family="Arial">Apprenticeship</text>
<text x="108.5" y="33.0" font-size="3" fill="#718096" font-family="Arial" font-weight="bold">Cost: </text>
<text x="118.5" y="33.0" font-size="3" fill="#2d3748" font-family="Arial">4g OR 1 food</text>
<line x1="108.5" y1="37.0" x2="149.5" y2="37.0" stroke="#805ad5" stroke-width="0.3"/>
<text x="108.5" y="40.5" font-size="2.7" fill="#2d3748" font-family="Arial">Your Draft actions draw 3 modifier cards</text>
<text x="108.5" y="44.3" font-size="3.0" fill="#2d3748" font-family="Arial">instead of 2.</text>
<rect x="106.5" y="76.0" width="45" height="3" fill="#553c9a" rx="1"/>
<rect x="106.5" y="74.0" width="45" height="2" fill="#553c9a"/>
<line x1="105.0" y1="14.0" x2="108.0" y2="14.0" stroke="#ccc" stroke-width="0.3"/>
<line x1="106.5" y1="12.5" x2="106.5" y2="15.5" stroke="#ccc" stroke-width="0.3"/>
<line x1="150.0" y1="14.0" x2="153.0" y2="14.0" stroke="#ccc" stroke-width="0.3"/>
<line x1="151.5" y1="12.5" x2="151.5" y2="15.5" stroke="#ccc" stroke-width="0.3"/>
<line x1="105.0" y1="79.0" x2="108.0" y2="79.0" stroke="#ccc" stroke-width="0.3"/>
<line x1="106.5" y1="77.5" x2="106.5" y2="80.5" stroke="#ccc" stroke-width="0.3"/>
<line x1="150.0" y1="79.0" x2="153.0" y2="79.0" stroke="#ccc" stroke-width="0.3"/>
<line x1="151.5" y1="77.5" x2="151.5" y2="80.5" stroke="#ccc" stroke-width="0.3"/>
<rect x="154.5" y="14.0" width="45" height="65" fill="#faf5ff" stroke="#553c9a" stroke-width="0.7" rx="1.5"/>
<rect x="154.5" y="14.0" width="45" height="9" fill="#553c9a" rx="1.5"/>
<rect x="154.5" y="19.0" width="45" height="4" fill="#553c9a"/>
<text x="156.5" y="20.5" font-size="3.2" font-weight="bold" fill="white" font-family="Arial">Science</text>
<rect x="186.5" y="15.0" width="11" height="7" fill="rgba(0,0,0,0.25)" rx="1"/>
<text x="192.0" y="20.5" font-size="3.5" fill="white" text-anchor="middle" font-family="Arial">Era II</text>
<text x="177.0" y="29.0" font-size="5" font-weight="bold" fill="#553c9a" text-anchor="middle" font-family="Arial">Taxation Reform</text>
<text x="156.5" y="33.0" font-size="3" fill="#718096" font-family="Arial" font-weight="bold">Cost: </text>
<text x="166.5" y="33.0" font-size="3" fill="#2d3748" font-family="Arial">7g OR 1 paper + 1 food</text>
<line x1="156.5" y1="37.0" x2="197.5" y2="37.0" stroke="#805ad5" stroke-width="0.3"/>
<text x="156.5" y="40.5" font-size="3.0" fill="#2d3748" font-family="Arial">While on your mat: reduce all your</text>
<text x="156.5" y="44.3" font-size="3.0" fill="#2d3748" font-family="Arial">region upkeep by 1 (minimum 0).</text>
<rect x="154.5" y="76.0" width="45" height="3" fill="#553c9a" rx="1"/>
<rect x="154.5" y="74.0" width="45" height="2" fill="#553c9a"/>
<line x1="153.0" y1="14.0" x2="156.0" y2="14.0" stroke="#ccc" stroke-width="0.3"/>
<line x1="154.5" y1="12.5" x2="154.5" y2="15.5" stroke="#ccc" stroke-width="0.3"/>
<line x1="198.0" y1="14.0" x2="201.0" y2="14.0" stroke="#ccc" stroke-width="0.3"/>
<line x1="199.5" y1="12.5" x2="199.5" y2="15.5" stroke="#ccc" stroke-width="0.3"/>
<line x1="153.0" y1="79.0" x2="156.0" y2="79.0" stroke="#ccc" stroke-width="0.3"/>
<line x1="154.5" y1="77.5" x2="154.5" y2="80.5" stroke="#ccc" stroke-width="0.3"/>
<line x1="198.0" y1="79.0" x2="201.0" y2="79.0" stroke="#ccc" stroke-width="0.3"/>
<line x1="199.5" y1="77.5" x2="199.5" y2="80.5" stroke="#ccc" stroke-width="0.3"/>
<rect x="10.5" y="82.0" width="45" height="65" fill="#faf5ff" stroke="#553c9a" stroke-width="0.7" rx="1.5"/>
<rect x="10.5" y="82.0" width="45" height="9" fill="#553c9a" rx="1.5"/>
<rect x="10.5" y="87.0" width="45" height="4" fill="#553c9a"/>
<text x="12.5" y="88.5" font-size="3.2" font-weight="bold" fill="white" font-family="Arial">Science</text>
<rect x="42.5" y="83.0" width="11" height="7" fill="rgba(0,0,0,0.25)" rx="1"/>
<text x="48.0" y="88.5" font-size="3.5" fill="white" text-anchor="middle" font-family="Arial">Era II</text>
<text x="33.0" y="97.0" font-size="5" font-weight="bold" fill="#553c9a" text-anchor="middle" font-family="Arial">Military Academy</text>
<text x="12.5" y="101.0" font-size="3" fill="#718096" font-family="Arial" font-weight="bold">Cost: </text>
<text x="22.5" y="101.0" font-size="3" fill="#2d3748" font-family="Arial">7g OR 1 iron + 1 food</text>
<line x1="12.5" y1="105.0" x2="53.5" y2="105.0" stroke="#805ad5" stroke-width="0.3"/>
<text x="12.5" y="108.5" font-size="3.0" fill="#2d3748" font-family="Arial">+1 base attack strength permanently</text>
<text x="12.5" y="112.3" font-size="3.0" fill="#2d3748" font-family="Arial">while on your mat.</text>
<rect x="10.5" y="144.0" width="45" height="3" fill="#553c9a" rx="1"/>
<rect x="10.5" y="142.0" width="45" height="2" fill="#553c9a"/>
<line x1="9.0" y1="82.0" x2="12.0" y2="82.0" stroke="#ccc" stroke-width="0.3"/>
<line x1="10.5" y1="80.5" x2="10.5" y2="83.5" stroke="#ccc" stroke-width="0.3"/>
<line x1="54.0" y1="82.0" x2="57.0" y2="82.0" stroke="#ccc" stroke-width="0.3"/>
<line x1="55.5" y1="80.5" x2="55.5" y2="83.5" stroke="#ccc" stroke-width="0.3"/>
<line x1="9.0" y1="147.0" x2="12.0" y2="147.0" stroke="#ccc" stroke-width="0.3"/>
<line x1="10.5" y1="145.5" x2="10.5" y2="148.5" stroke="#ccc" stroke-width="0.3"/>
<line x1="54.0" y1="147.0" x2="57.0" y2="147.0" stroke="#ccc" stroke-width="0.3"/>
<line x1="55.5" y1="145.5" x2="55.5" y2="148.5" stroke="#ccc" stroke-width="0.3"/>
<rect x="58.5" y="82.0" width="45" height="65" fill="#faf5ff" stroke="#553c9a" stroke-width="0.7" rx="1.5"/>
<rect x="58.5" y="82.0" width="45" height="9" fill="#553c9a" rx="1.5"/>
<rect x="58.5" y="87.0" width="45" height="4" fill="#553c9a"/>
<text x="60.5" y="88.5" font-size="3.2" font-weight="bold" fill="white" font-family="Arial">Science</text>
<rect x="90.5" y="83.0" width="11" height="7" fill="rgba(0,0,0,0.25)" rx="1"/>
<text x="96.0" y="88.5" font-size="3.5" fill="white" text-anchor="middle" font-family="Arial">Era II</text>
<text x="81.0" y="97.0" font-size="5" font-weight="bold" fill="#553c9a" text-anchor="middle" font-family="Arial">Guild</text>
<text x="60.5" y="101.0" font-size="3" fill="#718096" font-family="Arial" font-weight="bold">Cost: </text>
<text x="70.5" y="101.0" font-size="3" fill="#2d3748" font-family="Arial">7g OR 1 paper + 1 food</text>
<line x1="60.5" y1="105.0" x2="101.5" y2="105.0" stroke="#805ad5" stroke-width="0.3"/>
<text x="60.5" y="108.5" font-size="2.7" fill="#2d3748" font-family="Arial">+2 market actions per era while on your</text>
<text x="60.5" y="112.3" font-size="3.0" fill="#2d3748" font-family="Arial">mat.</text>
<rect x="58.5" y="144.0" width="45" height="3" fill="#553c9a" rx="1"/>
<rect x="58.5" y="142.0" width="45" height="2" fill="#553c9a"/>
<line x1="57.0" y1="82.0" x2="60.0" y2="82.0" stroke="#ccc" stroke-width="0.3"/>
<line x1="58.5" y1="80.5" x2="58.5" y2="83.5" stroke="#ccc" stroke-width="0.3"/>
<line x1="102.0" y1="82.0" x2="105.0" y2="82.0" stroke="#ccc" stroke-width="0.3"/>
<line x1="103.5" y1="80.5" x2="103.5" y2="83.5" stroke="#ccc" stroke-width="0.3"/>
<line x1="57.0" y1="147.0" x2="60.0" y2="147.0" stroke="#ccc" stroke-width="0.3"/>
<line x1="58.5" y1="145.5" x2="58.5" y2="148.5" stroke="#ccc" stroke-width="0.3"/>
<line x1="102.0" y1="147.0" x2="105.0" y2="147.0" stroke="#ccc" stroke-width="0.3"/>
<line x1="103.5" y1="145.5" x2="103.5" y2="148.5" stroke="#ccc" stroke-width="0.3"/>
<rect x="106.5" y="82.0" width="45" height="65" fill="#faf5ff" stroke="#553c9a" stroke-width="0.7" rx="1.5"/>
<rect x="106.5" y="82.0" width="45" height="9" fill="#553c9a" rx="1.5"/>
<rect x="106.5" y="87.0" width="45" height="4" fill="#553c9a"/>
<text x="108.5" y="88.5" font-size="3.2" font-weight="bold" fill="white" font-family="Arial">Science</text>
<rect x="138.5" y="83.0" width="11" height="7" fill="rgba(0,0,0,0.25)" rx="1"/>
<text x="144.0" y="88.5" font-size="3.5" fill="white" text-anchor="middle" font-family="Arial">Era II</text>
<text x="129.0" y="97.0" font-size="5" font-weight="bold" fill="#553c9a" text-anchor="middle" font-family="Arial">War College</text>
<text x="108.5" y="101.0" font-size="3" fill="#718096" font-family="Arial" font-weight="bold">Cost: </text>
<text x="118.5" y="101.0" font-size="3" fill="#2d3748" font-family="Arial">7g OR 1 paper + 1 food</text>
<line x1="108.5" y1="105.0" x2="149.5" y2="105.0" stroke="#805ad5" stroke-width="0.3"/>
<text x="108.5" y="108.5" font-size="2.7" fill="#2d3748" font-family="Arial">Once per round: after a failed attack,</text>
<text x="108.5" y="112.3" font-size="3.0" fill="#2d3748" font-family="Arial">trash 1 card from the top 2 of your</text>
<text x="108.5" y="116.1" font-size="2.7" fill="#2d3748" font-family="Arial">modifier discard pile at no cost. Fail</text>
<text x="108.5" y="119.9" font-size="2.7" fill="#2d3748" font-family="Arial">and Success cannot be trashed this way.</text>
<rect x="106.5" y="144.0" width="45" height="3" fill="#553c9a" rx="1"/>
<rect x="106.5" y="142.0" width="45" height="2" fill="#553c9a"/>
<line x1="105.0" y1="82.0" x2="108.0" y2="82.0" stroke="#ccc" stroke-width="0.3"/>
<line x1="106.5" y1="80.5" x2="106.5" y2="83.5" stroke="#ccc" stroke-width="0.3"/>
<line x1="150.0" y1="82.0" x2="153.0" y2="82.0" stroke="#ccc" stroke-width="0.3"/>
<line x1="151.5" y1="80.5" x2="151.5" y2="83.5" stroke="#ccc" stroke-width="0.3"/>
<line x1="105.0" y1="147.0" x2="108.0" y2="147.0" stroke="#ccc" stroke-width="0.3"/>
<line x1="106.5" y1="145.5" x2="106.5" y2="148.5" stroke="#ccc" stroke-width="0.3"/>
<line x1="150.0" y1="147.0" x2="153.0" y2="147.0" stroke="#ccc" stroke-width="0.3"/>
<line x1="151.5" y1="145.5" x2="151.5" y2="148.5" stroke="#ccc" stroke-width="0.3"/>
<rect x="154.5" y="82.0" width="45" height="65" fill="#faf5ff" stroke="#553c9a" stroke-width="0.7" rx="1.5"/>
<rect x="154.5" y="82.0" width="45" height="9" fill="#553c9a" rx="1.5"/>
<rect x="154.5" y="87.0" width="45" height="4" fill="#553c9a"/>
<text x="156.5" y="88.5" font-size="3.2" font-weight="bold" fill="white" font-family="Arial">Science</text>
<rect x="186.5" y="83.0" width="11" height="7" fill="rgba(0,0,0,0.25)" rx="1"/>
<text x="192.0" y="88.5" font-size="3.5" fill="white" text-anchor="middle" font-family="Arial">Era II</text>
<text x="177.0" y="97.0" font-size="5" font-weight="bold" fill="#553c9a" text-anchor="middle" font-family="Arial">Logistics</text>
<text x="156.5" y="101.0" font-size="3" fill="#718096" font-family="Arial" font-weight="bold">Cost: </text>
<text x="166.5" y="101.0" font-size="3" fill="#2d3748" font-family="Arial">6g OR 1 paper + 1 food</text>
<line x1="156.5" y1="105.0" x2="197.5" y2="105.0" stroke="#805ad5" stroke-width="0.3"/>
<text x="156.5" y="108.5" font-size="2.7" fill="#2d3748" font-family="Arial">+1 attack action per era. Once per era:</text>
<text x="156.5" y="112.3" font-size="3.0" fill="#2d3748" font-family="Arial">move one of your building tokens to</text>
<text x="156.5" y="116.1" font-size="3.0" fill="#2d3748" font-family="Arial">another eligible region you control.</text>
<rect x="154.5" y="144.0" width="45" height="3" fill="#553c9a" rx="1"/>
<rect x="154.5" y="142.0" width="45" height="2" fill="#553c9a"/>
<line x1="153.0" y1="82.0" x2="156.0" y2="82.0" stroke="#ccc" stroke-width="0.3"/>
<line x1="154.5" y1="80.5" x2="154.5" y2="83.5" stroke="#ccc" stroke-width="0.3"/>
<line x1="198.0" y1="82.0" x2="201.0" y2="82.0" stroke="#ccc" stroke-width="0.3"/>
<line x1="199.5" y1="80.5" x2="199.5" y2="83.5" stroke="#ccc" stroke-width="0.3"/>
<line x1="153.0" y1="147.0" x2="156.0" y2="147.0" stroke="#ccc" stroke-width="0.3"/>
<line x1="154.5" y1="145.5" x2="154.5" y2="148.5" stroke="#ccc" stroke-width="0.3"/>
<line x1="198.0" y1="147.0" x2="201.0" y2="147.0" stroke="#ccc" stroke-width="0.3"/>
<line x1="199.5" y1="145.5" x2="199.5" y2="148.5" stroke="#ccc" stroke-width="0.3"/>
<rect x="10.5" y="150.0" width="45" height="65" fill="#faf5ff" stroke="#553c9a" stroke-width="0.7" rx="1.5"/>
<rect x="10.5" y="150.0" width="45" height="9" fill="#553c9a" rx="1.5"/>
<rect x="10.5" y="155.0" width="45" height="4" fill="#553c9a"/>
<text x="12.5" y="156.5" font-size="3.2" font-weight="bold" fill="white" font-family="Arial">Science</text>
<rect x="42.5" y="151.0" width="11" height="7" fill="rgba(0,0,0,0.25)" rx="1"/>
<text x="48.0" y="156.5" font-size="3.5" fill="white" text-anchor="middle" font-family="Arial">Era III</text>
<text x="33.0" y="165.0" font-size="5" font-weight="bold" fill="#553c9a" text-anchor="middle" font-family="Arial">Alchemy</text>
<text x="12.5" y="169.0" font-size="3" fill="#718096" font-family="Arial" font-weight="bold">Cost: </text>
<text x="22.5" y="169.0" font-size="3" fill="#2d3748" font-family="Arial">6g OR 1 wild</text>
<line x1="12.5" y1="173.0" x2="53.5" y2="173.0" stroke="#805ad5" stroke-width="0.3"/>
<text x="12.5" y="176.5" font-size="3.0" fill="#2d3748" font-family="Arial">Once per round, convert any 2</text>
<text x="12.5" y="180.3" font-size="3.0" fill="#2d3748" font-family="Arial">commodities into 1 wild commodity.</text>
<rect x="10.5" y="212.0" width="45" height="3" fill="#553c9a" rx="1"/>
<rect x="10.5" y="210.0" width="45" height="2" fill="#553c9a"/>
<line x1="9.0" y1="150.0" x2="12.0" y2="150.0" stroke="#ccc" stroke-width="0.3"/>
<line x1="10.5" y1="148.5" x2="10.5" y2="151.5" stroke="#ccc" stroke-width="0.3"/>
<line x1="54.0" y1="150.0" x2="57.0" y2="150.0" stroke="#ccc" stroke-width="0.3"/>
<line x1="55.5" y1="148.5" x2="55.5" y2="151.5" stroke="#ccc" stroke-width="0.3"/>
<line x1="9.0" y1="215.0" x2="12.0" y2="215.0" stroke="#ccc" stroke-width="0.3"/>
<line x1="10.5" y1="213.5" x2="10.5" y2="216.5" stroke="#ccc" stroke-width="0.3"/>
<line x1="54.0" y1="215.0" x2="57.0" y2="215.0" stroke="#ccc" stroke-width="0.3"/>
<line x1="55.5" y1="213.5" x2="55.5" y2="216.5" stroke="#ccc" stroke-width="0.3"/>
<rect x="58.5" y="150.0" width="45" height="65" fill="#faf5ff" stroke="#553c9a" stroke-width="0.7" rx="1.5"/>
<rect x="58.5" y="150.0" width="45" height="9" fill="#553c9a" rx="1.5"/>
<rect x="58.5" y="155.0" width="45" height="4" fill="#553c9a"/>
<text x="60.5" y="156.5" font-size="3.2" font-weight="bold" fill="white" font-family="Arial">Science</text>
<rect x="90.5" y="151.0" width="11" height="7" fill="rgba(0,0,0,0.25)" rx="1"/>
<text x="96.0" y="156.5" font-size="3.5" fill="white" text-anchor="middle" font-family="Arial">Era III</text>
<text x="81.0" y="165.0" font-size="5" font-weight="bold" fill="#553c9a" text-anchor="middle" font-family="Arial">Grand Archive</text>
<text x="60.5" y="169.0" font-size="3" fill="#718096" font-family="Arial" font-weight="bold">Cost: </text>
<text x="70.5" y="169.0" font-size="3" fill="#2d3748" font-family="Arial">10g OR 2 paper + 1 wild</text>
<line x1="60.5" y1="173.0" x2="101.5" y2="173.0" stroke="#805ad5" stroke-width="0.3"/>
<text x="60.5" y="176.5" font-size="2.7" fill="#2d3748" font-family="Arial">Your Draft actions draw 4 cards and keep</text>
<text x="60.5" y="180.3" font-size="2.7" fill="#2d3748" font-family="Arial">2. Your Cull actions choose from 5 cards</text>
<text x="60.5" y="184.1" font-size="3.0" fill="#2d3748" font-family="Arial">and remove 2.</text>
<rect x="58.5" y="212.0" width="45" height="3" fill="#553c9a" rx="1"/>
<rect x="58.5" y="210.0" width="45" height="2" fill="#553c9a"/>
<line x1="57.0" y1="150.0" x2="60.0" y2="150.0" stroke="#ccc" stroke-width="0.3"/>
<line x1="58.5" y1="148.5" x2="58.5" y2="151.5" stroke="#ccc" stroke-width="0.3"/>
<line x1="102.0" y1="150.0" x2="105.0" y2="150.0" stroke="#ccc" stroke-width="0.3"/>
<line x1="103.5" y1="148.5" x2="103.5" y2="151.5" stroke="#ccc" stroke-width="0.3"/>
<line x1="57.0" y1="215.0" x2="60.0" y2="215.0" stroke="#ccc" stroke-width="0.3"/>
<line x1="58.5" y1="213.5" x2="58.5" y2="216.5" stroke="#ccc" stroke-width="0.3"/>
<line x1="102.0" y1="215.0" x2="105.0" y2="215.0" stroke="#ccc" stroke-width="0.3"/>
<line x1="103.5" y1="213.5" x2="103.5" y2="216.5" stroke="#ccc" stroke-width="0.3"/>
<rect x="106.5" y="150.0" width="45" height="65" fill="#faf5ff" stroke="#553c9a" stroke-width="0.7" rx="1.5"/>
<rect x="106.5" y="150.0" width="45" height="9" fill="#553c9a" rx="1.5"/>
<rect x="106.5" y="155.0" width="45" height="4" fill="#553c9a"/>
<text x="108.5" y="156.5" font-size="3.2" font-weight="bold" fill="white" font-family="Arial">Science</text>
<rect x="138.5" y="151.0" width="11" height="7" fill="rgba(0,0,0,0.25)" rx="1"/>
<text x="144.0" y="156.5" font-size="3.5" fill="white" text-anchor="middle" font-family="Arial">Era III</text>
<text x="129.0" y="165.0" font-size="5" font-weight="bold" fill="#553c9a" text-anchor="middle" font-family="Arial">Innovation</text>
<text x="108.5" y="169.0" font-size="3" fill="#718096" font-family="Arial" font-weight="bold">Cost: </text>
<text x="118.5" y="169.0" font-size="3" fill="#2d3748" font-family="Arial">9g OR 2 paper</text>
<line x1="108.5" y1="173.0" x2="149.5" y2="173.0" stroke="#805ad5" stroke-width="0.3"/>
<text x="108.5" y="176.5" font-size="3.0" fill="#2d3748" font-family="Arial">+1 market action per era. Once per</text>
<text x="108.5" y="180.3" font-size="3.0" fill="#2d3748" font-family="Arial">round: your next market purchase this</text>
<text x="108.5" y="184.1" font-size="3.0" fill="#2d3748" font-family="Arial">round costs 2 less gold (minimum 1</text>
<text x="108.5" y="187.9" font-size="3.0" fill="#2d3748" font-family="Arial">gold).</text>
<rect x="106.5" y="212.0" width="45" height="3" fill="#553c9a" rx="1"/>
<rect x="106.5" y="210.0" width="45" height="2" fill="#553c9a"/>
<line x1="105.0" y1="150.0" x2="108.0" y2="150.0" stroke="#ccc" stroke-width="0.3"/>
<line x1="106.5" y1="148.5" x2="106.5" y2="151.5" stroke="#ccc" stroke-width="0.3"/>
<line x1="150.0" y1="150.0" x2="153.0" y2="150.0" stroke="#ccc" stroke-width="0.3"/>
<line x1="151.5" y1="148.5" x2="151.5" y2="151.5" stroke="#ccc" stroke-width="0.3"/>
<line x1="105.0" y1="215.0" x2="108.0" y2="215.0" stroke="#ccc" stroke-width="0.3"/>
<line x1="106.5" y1="213.5" x2="106.5" y2="216.5" stroke="#ccc" stroke-width="0.3"/>
<line x1="150.0" y1="215.0" x2="153.0" y2="215.0" stroke="#ccc" stroke-width="0.3"/>
<line x1="151.5" y1="213.5" x2="151.5" y2="216.5" stroke="#ccc" stroke-width="0.3"/>
</svg>