<?xml version="1.0" encoding="UTF-8"?>
<svg xmlns="http://www.w3.org/2000/svg" viewBox="0 0 210 297" width="210mm" height="297mm">
<rect width="210" height="297" fill="#e8e8e8"/>
<text x="105" y="8" font-size="4.5" fill="#555" text-anchor="middle" font-family="Arial">TOFTA — Military Cards (Red)</text>
<rect x="10.5" y="14.0" width="45" height="65" fill="#fff5f5" stroke="#c53030" stroke-width="0.7" rx="1.5"/>
<rect x="10.5" y="14.0" width="45" height="9" fill="#c53030" rx="1.5"/>
<rect x="10.5" y="19.0" width="45" height="4" fill="#c53030"/>
<text x="12.5" y="20.5" font-size="3.2" font-weight="bold" fill="white" font-family="Arial">Military</text>
<rect x="42.5" y="15.0" width="11" height="7" fill="rgba(0,0,0,0.25)" rx="1"/>
<text x="48.0" y="20.5" font-size="3.5" fill="white" text-anchor="middle" font-family="Arial">Era I</text>
<text x="33.0" y="29.0" font-size="5" font-weight="bold" fill="#c53030" text-anchor="middle" font-family="Arial">Watchtower</text>
<text x="12.5" y="33.0" font-size="3" fill="#718096" font-family="Arial" font-weight="bold">Cost: </text>
<text x="22.5" y="33.0" font-size="3" fill="#2d3748" font-family="Arial">3g OR 1 stone</text>
<text x="12.5" y="37.0" font-size="3" fill="#718096" font-family="Arial" font-weight="bold">Place: </text>
<text x="23.5" y="37.0" font-size="3" fill="#2d3748" font-family="Arial">Any region</text>
<line x1="12.5" y1="41.0" x2="53.5" y2="41.0" stroke="#e53e3e" stroke-width="0.3"/>
<text x="12.5" y="44.5" font-size="3.0" fill="#2d3748" font-family="Arial">BUILDING — place: 1 mkt action + gold</text>
<text x="12.5" y="48.3" font-size="3.0" fill="#2d3748" font-family="Arial">per track level. +1 defense to this</text>
<text x="12.5" y="52.1" font-size="3.0" fill="#2d3748" font-family="Arial">region. Limit 1 per region.</text>
<rect x="10.5" y="76.0" width="45" height="3" fill="#c53030" rx="1"/>
<rect x="10.5" y="74.0" width="45" height="2" fill="#c53030"/>
<line x1="9.0" y1="14.0" x2="12.0" y2="14.0" stroke="#ccc" stroke-width="0.3"/>
<line x1="10.5" y1="12.5" x2="10.5" y2="15.5" stroke="#ccc" stroke-width="0.3"/>
<line x1="54.0" y1="14.0" x2="57.0" y2="14.0" stroke="#ccc" stroke-width="0.3"/>
<line x1="55.5" y1="12.5" x2="55.5" y2="15.5" stroke="#ccc" stroke-width="0.3"/>
<line x1="9.0" y1="79.0" x2="12.0" y2="79.0" stroke="#ccc" stroke-width="0.3"/>
<line x1="10.5" y1="77.5" x2="10.5" y2="80.5" stroke="#ccc" stroke-width="0.3"/>
<line x1="54.0" y1="79.0" x2="57.0" y2="79.0" stroke="#ccc" stroke-width="0.3"/>
<line x1="55.5" y1="77.5" x2="55.5" y2="80.5" stroke="#ccc" stroke-width="0.3"/>
<rect x="58.5" y="14.0" width="45" height="65" fill="#fff5f5" stroke="#c53030" stroke-width="0.7" rx="1.5"/>
<rect x="58.5" y="14.0" width="45" height="9" fill="#c53030" rx="1.5"/>
<rect x="58.5" y="19.0" width="45" height="4" fill="#c53030"/>
<text x="60.5" y="20.5" font-size="3.2" font-weight="bold" fill="white" font-family="Arial">Military</text>
<rect x="90.5" y="15.0" width="11" height="7" fill="rgba(0,0,0,0.25)" rx="1"/>
<text x="96.0" y="20.5" font-size="3.5" fill="white" text-anchor="middle" font-family="Arial">Era I</text>
<text x="81.0" y="29.0" font-size="5" font-weight="bold" fill="#c53030" text-anchor="middle" font-family="Arial">Mountain Fort</text>
<text x="60.5" y="33.0" font-size="3" fill="#718096" font-family="Arial" font-weight="bold">Cost: </text>
<text x="70.5" y="33.0" font-size="3" fill="#2d3748" font-family="Arial">3g OR 1 stone</text>
<text x="60.5" y="37.0" font-size="3" fill="#718096" font-family="Arial" font-weight="bold">Place: </text>
<text x="71.5" y="37.0" font-size="3" fill="#2d3748" font-family="Arial">Mountain</text>
<line x1="60.5" y1="41.0" x2="101.5" y2="41.0" stroke="#e53e3e" stroke-width="0.3"/>
<text x="60.5" y="44.5" font-size="3.0" fill="#2d3748" font-family="Arial">BUILDING — place: 1 mkt action + gold</text>
<text x="60.5" y="48.3" font-size="3.0" fill="#2d3748" font-family="Arial">per track level. +1 defense to this</text>
<text x="60.5" y="52.1" font-size="3.0" fill="#2d3748" font-family="Arial">region and all adjacent. Stacks.</text>
<rect x="58.5" y="76.0" width="45" height="3" fill="#c53030" rx="1"/>
<rect x="58.5" y="74.0" width="45" height="2" fill="#c53030"/>
<line x1="57.0" y1="14.0" x2="60.0" y2="14.0" stroke="#ccc" stroke-width="0.3"/>
<line x1="58.5" y1="12.5" x2="58.5" y2="15.5" stroke="#ccc" stroke-width="0.3"/>
<line x1="102.0" y1="14.0" x2="105.0" y2="14.0" stroke="#ccc" stroke-width="0.3"/>
<line x1="103.5" y1="12.5" x2="103.5" y2="15.5" stroke="#ccc" stroke-width="0.3"/>
<line x1="57.0" y1="79.0" x2="60.0" y2="79.0" stroke="#ccc" stroke-width="0.3"/>
<line x1="58.5" y1="77.5" x2="58.5" y2="80.5" stroke="#ccc" stroke-width="0.3"/>
<line x1="102.0" y1="79.0" x2="105.0" y2="79.0" stroke="#ccc" stroke-width="0.3"/>
<line x1="103.5" y1="77.5" x2="103.5" y2="80.5" stroke="#ccc" stroke-width="0.3"/>
<rect x="106.5" y="14.0" width="45" height="65" fill="#fff5f5" stroke="#c53030" stroke-width="0.7" rx="1.5"/>
<rect x="106.5" y="14.0" width="45" height="9" fill="#c53030" rx="1.5"/>
<rect x="106.5" y="19.0" width="45" height="4" fill="#c53030"/>
<text x="108.5" y="20.5" font-size="3.2" font-weight="bold" fill="white" font-family="Arial">Military</text>
<rect x="138.5" y="15.0" width="11" height="7" fill="rgba(0,0,0,0.25)" rx="1"/>
<text x="144.0" y="20.5" font-size="3.5" fill="white" text-anchor="middle" font-family="Arial">Era I</text>
<text x="129.0" y="29.0" font-size="5" font-weight="bold" fill="#c53030" text-anchor="middle" font-family="Arial">Battering Ram</text>
<text x="108.5" y="33.0" font-size="3" fill="#718096" font-family="Arial" font-weight="bold">Cost: </text>
<text x="118.5" y="33.0" font-size="3" fill="#2d3748" font-family="Arial">3g OR 1 stone</text>
<line x1="108.5" y1="37.0" x2="149.5" y2="37.0" stroke="#e53e3e" stroke-width="0.3"/>
<text x="108.5" y="40.5" font-size="3.0" fill="#2d3748" font-family="Arial">Choose one region when playing this</text>
<text x="108.5" y="44.3" font-size="2.7" fill="#2d3748" font-family="Arial">card. That region loses 1 defense while</text>
<text x="108.5" y="48.1" font-size="3.0" fill="#2d3748" font-family="Arial">this card is on your mat.</text>
<rect x="106.5" y="76.0" width="45" height="3" fill="#c53030" rx="1"/>
<rect x="106.5" y="74.0" width="45" height="2" fill="#c53030"/>
<line x1="105.0" y1="14.0" x2="108.0" y2="14.0" stroke="#ccc" stroke-width="0.3"/>
<line x1="106.5" y1="12.5" x2="106.5" y2="15.5" stroke="#ccc" stroke-width="0.3"/>
<line x1="150.0" y1="14.0" x2="153.0" y2="14.0" stroke="#ccc" stroke-width="0.3"/>
<line x1="151.5" y1="12.5" x2="151.5" y2="15.5" stroke="#ccc" stroke-width="0.3"/>
<line x1="105.0" y1="79.0" x2="108.0" y2="79.0" stroke="#ccc" stroke-width="0.3"/>
<line x1="106.5" y1="77.5" x2="106.5" y2="80.5" stroke="#ccc" stroke-width="0.3"/>
<line x1="150.0" y1="79.0" x2="153.0" y2="79.0" stroke="#ccc" stroke-width="0.3"/>
<line x1="151.5" y1="77.5" x2="151.5" y2="80.5" stroke="#ccc" stroke-width="0.3"/>
<rect x="154.5" y="14.0" width="45" height="65" fill="#fff5f5" stroke="#c53030" stroke-width="0.7" rx="1.5"/>
<rect x="154.5" y="14.0" width="45" height="9" fill="#c53030" rx="1.5"/>
<rect x="154.5" y="19.0" width="45" height="4" fill="#c53030"/>
<text x="156.5" y="20.5" font-size="3.2" font-weight="bold" fill="white" font-family="Arial">Military</text>
<rect x="186.5" y="15.0" width="11" height="7" fill="rgba(0,0,0,0.25)" rx="1"/>
<text x="192.0" y="20.5" font-size="3.5" fill="white" text-anchor="middle" font-family="Arial">Era I</text>
<text x="177.0" y="29.0" font-size="5" font-weight="bold" fill="#c53030" text-anchor="middle" font-family="Arial">Drill Sergeant</text>
<text x="156.5" y="33.0" font-size="3" fill="#718096" font-family="Arial" font-weight="bold">Cost: </text>
<text x="166.5" y="33.0" font-size="3" fill="#2d3748" font-family="Arial">4g OR 1 food</text>
<line x1="156.5" y1="37.0" x2="197.5" y2="37.0" stroke="#e53e3e" stroke-width="0.3"/>
<text x="156.5" y="40.5" font-size="2.7" fill="#2d3748" font-family="Arial">+1 base defense strength while this card</text>
<text x="156.5" y="44.3" font-size="3.0" fill="#2d3748" font-family="Arial">is on your mat.</text>
<rect x="154.5" y="76.0" width="45" height="3" fill="#c53030" rx="1"/>
<rect x="154.5" y="74.0" width="45" height="2" fill="#c53030"/>
<line x1="153.0" y1="14.0" x2="156.0" y2="14.0" stroke="#ccc" stroke-width="0.3"/>
<line x1="154.5" y1="12.5" x2="154.5" y2="15.5" stroke="#ccc" stroke-width="0.3"/>
<line x1="198.0" y1="14.0" x2="201.0" y2="14.0" stroke="#ccc" stroke-width="0.3"/>
<line x1="199.5" y1="12.5" x2="199.5" y2="15.5" stroke="#ccc" stroke-width="0.3"/>
<line x1="153.0" y1="79.0" x2="156.0" y2="79.0" stroke="#ccc" stroke-width="0.3"/>
<line x1="154.5" y1="77.5" x2="154.5" y2="80.5" stroke="#ccc" stroke-width="0.3"/>
<line x1="198.0" y1="79.0" x2="201.0" y2="79.0" stroke="#ccc" stroke-width="0.3"/>
<line x1="199.5" y1="77.5" x2="199.5" y2="80.5" stroke="#ccc" stroke-width="0.3"/>
<rect x="10.5" y="82.0" width="45" height="65" fill="#fff5f5" stroke="#c53030" stroke-width="0.7" rx="1.5"/>
<rect x="10.5" y="82.0" width="45" height="9" fill="#c53030" rx="1.5"/>
<rect x="10.5" y="87.0" width="45" height="4" fill="#c53030"/>
<text x="12.5" y="88.5" font-size="3.2" font-weight="bold" fill="white" font-family="Arial">Military</text>
<rect x="42.5" y="83.0" width="11" height="7" fill="rgba(0,0,0,0.25)" rx="1"/>
<text x="48.0" y="88.5" font-size="3.5" fill="white" text-anchor="middle" font-family="Arial">Era I</text>
<text x="33.0" y="97.0" font-size="5" font-weight="bold" fill="#c53030" text-anchor="middle" font-family="Arial">War Camp</text>
<text x="12.5" y="101.0" font-size="3" fill="#718096" font-family="Arial" font-weight="bold">Cost: </text>
<text x="22.5" y="101.0" font-size="3" fill="#2d3748" font-family="Arial">5g OR 2 food</text>
<text x="12.5" y="105.0" font-size="3" fill="#718096" font-family="Arial" font-weight="bold">Place: </text>
<text x="23.5" y="105.0" font-size="3" fill="#2d3748" font-family="Arial">Any region</text>
<line x1="12.5" y1="109.0" x2="53.5" y2="109.0" stroke="#e53e3e" stroke-width="0.3"/>
<text x="12.5" y="112.5" font-size="3.0" fill="#2d3748" font-family="Arial">BUILDING — place: 1 mkt action + gold</text>
<text x="12.5" y="116.3" font-size="3.0" fill="#2d3748" font-family="Arial">per track level. +1 attack action per</text>
<text x="12.5" y="120.1" font-size="3.0" fill="#2d3748" font-family="Arial">era while on your mat.</text>
<rect x="10.5" y="144.0" width="45" height="3" fill="#c53030" rx="1"/>
<rect x="10.5" y="142.0" width="45" height="2" fill="#c53030"/>
<line x1="9.0" y1="82.0" x2="12.0" y2="82.0" stroke="#ccc" stroke-width="0.3"/>
<line x1="10.5" y1="80.5" x2="10.5" y2="83.5" stroke="#ccc" stroke-width="0.3"/>
<line x1="54.0" y1="82.0" x2="57.0" y2="82.0" stroke="#ccc" stroke-width="0.3"/>
<line x1="55.5" y1="80.5" x2="55.5" y2="83.5" stroke="#ccc" stroke-width="0.3"/>
<line x1="9.0" y1="147.0" x2="12.0" y2="147.0" stroke="#ccc" stroke-width="0.3"/>
<line x1="10.5" y1="145.5" x2="10.5" y2="148.5" stroke="#ccc" stroke-width="0.3"/>
<line x1="54.0" y1="147.0" x2="57.0" y2="147.0" stroke="#ccc" stroke-width="0.3"/>
<line x1="55.5" y1="145.5" x2="55.5" y2="148.5" stroke="#ccc" stroke-width="0.3"/>
<rect x="58.5" y="82.0" width="45" height="65" fill="#fff5f5" stroke="#c53030" stroke-width="0.7" rx="1.5"/>
<rect x="58.5" y="82.0" width="45" height="9" fill="#c53030" rx="1.5"/>
<rect x="58.5" y="87.0" width="45" height="4" fill="#c53030"/>
<text x="60.5" y="88.5" font-size="3.2" font-weight="bold" fill="white" font-family="Arial">Military</text>
<rect x="90.5" y="83.0" width="11" height="7" fill="rgba(0,0,0,0.25)" rx="1"/>
<text x="96.0" y="88.5" font-size="3.5" fill="white" text-anchor="middle" font-family="Arial">Era II</text>
<text x="81.0" y="97.0" font-size="5" font-weight="bold" fill="#c53030" text-anchor="middle" font-family="Arial">Siege Engine</text>
<text x="60.5" y="101.0" font-size="3" fill="#718096" font-family="Arial" font-weight="bold">Cost: </text>
<text x="70.5" y="101.0" font-size="3" fill="#2d3748" font-family="Arial">5g OR 1 iron</text>
<line x1="60.5" y1="105.0" x2="101.5" y2="105.0" stroke="#e53e3e" stroke-width="0.3"/>
<text x="60.5" y="108.5" font-size="3.0" fill="#2d3748" font-family="Arial">Once per era: target region loses its</text>
<text x="60.5" y="112.3" font-size="3.0" fill="#2d3748" font-family="Arial">terrain defense bonus for one attack.</text>
<rect x="58.5" y="144.0" width="45" height="3" fill="#c53030" rx="1"/>
<rect x="58.5" y="142.0" width="45" height="2" fill="#c53030"/>
<line x1="57.0" y1="82.0" x2="60.0" y2="82.0" stroke="#ccc" stroke-width="0.3"/>
<line x1="58.5" y1="80.5" x2="58.5" y2="83.5" stroke="#ccc" stroke-width="0.3"/>
<line x1="102.0" y1="82.0" x2="105.0" y2="82.0" stroke="#ccc" stroke-width="0.3"/>
<line x1="103.5" y1="80.5" x2="103.5" y2="83.5" stroke="#ccc" stroke-width="0.3"/>
<line x1="57.0" y1="147.0" x2="60.0" y2="147.0" stroke="#ccc" stroke-width="0.3"/>
<line x1="58.5" y1="145.5" x2="58.5" y2="148.5" stroke="#ccc" stroke-width="0.3"/>
<line x1="102.0" y1="147.0" x2="105.0" y2="147.0" stroke="#ccc" stroke-width="0.3"/>
<line x1="103.5" y1="145.5" x2="103.5" y2="148.5" stroke="#ccc" stroke-width="0.3"/>
<rect x="106.5" y="82.0" width="45" height="65" fill="#fff5f5" stroke="#c53030" stroke-width="0.7" rx="1.5"/>
<rect x="106.5" y="82.0" width="45" height="9" fill="#c53030" rx="1.5"/>
<rect x="106.5" y="87.0" width="45" height="4" fill="#c53030"/>
<text x="108.5" y="88.5" font-size="3.2" font-weight="bold" fill="white" font-family="Arial">Military</text>
<rect x="138.5" y="83.0" width="11" height="7" fill="rgba(0,0,0,0.25)" rx="1"/>
<text x="144.0" y="88.5" font-size="3.5" fill="white" text-anchor="middle" font-family="Arial">Era II</text>
<text x="129.0" y="97.0" font-size="5" font-weight="bold" fill="#c53030" text-anchor="middle" font-family="Arial">Shield Wall</text>
<text x="108.5" y="101.0" font-size="3" fill="#718096" font-family="Arial" font-weight="bold">Cost: </text>
<text x="118.5" y="101.0" font-size="3" fill="#2d3748" font-family="Arial">7g OR 1 iron + 1 food</text>
<line x1="108.5" y1="105.0" x2="149.5" y2="105.0" stroke="#e53e3e" stroke-width="0.3"/>
<text x="108.5" y="108.5" font-size="2.7" fill="#2d3748" font-family="Arial">Once per era: all your regions gain +1</text>
<text x="108.5" y="112.3" font-size="3.0" fill="#2d3748" font-family="Arial">defense this round.</text>
<rect x="106.5" y="144.0" width="45" height="3" fill="#c53030" rx="1"/>
<rect x="106.5" y="142.0" width="45" height="2" fill="#c53030"/>
<line x1="105.0" y1="82.0" x2="108.0" y2="82.0" stroke="#ccc" stroke-width="0.3"/>
<line x1="106.5" y1="80.5" x2="106.5" y2="83.5" stroke="#ccc" stroke-width="0.3"/>
<line x1="150.0" y1="82.0" x2="153.0" y2="82.0" stroke="#ccc" stroke-width="0.3"/>
<line x1="151.5" y1="80.5" x2="151.5" y2="83.5" stroke="#ccc" stroke-width="0.3"/>
<line x1="105.0" y1="147.0" x2="108.0" y2="147.0" stroke="#ccc" stroke-width="0.3"/>
<line x1="106.5" y1="145.5" x2="106.5" y2="148.5" stroke="#ccc" stroke-width="0.3"/>
<line x1="150.0" y1="147.0" x2="153.0" y2="147.0" stroke="#ccc" stroke-width="0.3"/>
<line x1="151.5" y1="145.5" x2="151.5" y2="148.5" stroke="#ccc" stroke-width="0.3"/>
<rect x="154.5" y="82.0" width="45" height="65" fill="#fff5f5" stroke="#c53030" stroke-width="0.7" rx="1.5"/>
<rect x="154.5" y="82.0" width="45" height="9" fill="#c53030" rx="1.5"/>
<rect x="154.5" y="87.0" width="45" height="4" fill="#c53030"/>
<text x="156.5" y="88.5" font-size="3.2" font-weight="bold" fill="white" font-family="Arial">Military</text>
<rect x="186.5" y="83.0" width="11" height="7" fill="rgba(0,0,0,0.25)" rx="1"/>
<text x="192.0" y="88.5" font-size="3.5" fill="white" text-anchor="middle" font-family="Arial">Era II</text>
<text x="177.0" y="97.0" font-size="5" font-weight="bold" fill="#c53030" text-anchor="middle" font-family="Arial">Castle</text>
<text x="156.5" y="101.0" font-size="3" fill="#718096" font-family="Arial" font-weight="bold">Cost: </text>
<text x="166.5" y="101.0" font-size="3" fill="#2d3748" font-family="Arial">6g OR 2 stone</text>
<text x="156.5" y="105.0" font-size="3" fill="#718096" font-family="Arial" font-weight="bold">Place: </text>
<text x="167.5" y="105.0" font-size="3" fill="#2d3748" font-family="Arial">Any region</text>
<line x1="156.5" y1="109.0" x2="197.5" y2="109.0" stroke="#e53e3e" stroke-width="0.3"/>
<text x="156.5" y="112.5" font-size="3.0" fill="#2d3748" font-family="Arial">BUILDING — place: 1 mkt action + gold</text>
<text x="156.5" y="116.3" font-size="3.0" fill="#2d3748" font-family="Arial">per track level. +2 defense to this</text>
<text x="156.5" y="120.1" font-size="3.0" fill="#2d3748" font-family="Arial">region and all adjacent. Stacks.</text>
<rect x="154.5" y="144.0" width="45" height="3" fill="#c53030" rx="1"/>
<rect x="154.5" y="142.0" width="45" height="2" fill="#c53030"/>
<line x1="153.0" y1="82.0" x2="156.0" y2="82.0" stroke="#ccc" stroke-width="0.3"/>
<line x1="154.5" y1="80.5" x2="154.5" y2="83.5" stroke="#ccc" stroke-width="0.3"/>
<line x1="198.0" y1="82.0" x2="201.0" y2="82.0" stroke="#ccc" stroke-width="0.3"/>
<line x1="199.5" y1="80.5" x2="199.5" y2="83.5" stroke="#ccc" stroke-width="0.3"/>
<line x1="153.0" y1="147.0" x2="156.0" y2="147.0" stroke="#ccc" stroke-width="0.3"/>
<line x1="154.5" y1="145.5" x2="154.5" y2="148.5" stroke="#ccc" stroke-width="0.3"/>
<line x1="198.0" y1="147.0" x2="201.0" y2="147.0" stroke="#ccc" stroke-width="0.3"/>
<line x1="199.5" y1="145.5" x2="199.5" y2="148.5" stroke="#ccc" stroke-width="0.3"/>
<rect x="10.5" y="150.0" width="45" height="65" fill="#fff5f5" stroke="#c53030" stroke-width="0.7" rx="1.5"/>
<rect x="10.5" y="150.0" width="45" height="9" fill="#c53030" rx="1.5"/>
<rect x="10.5" y="155.0" width="45" height="4" fill="#c53030"/>
<text x="12.5" y="156.5" font-size="3.2" font-weight="bold" fill="white" font-family="Arial">Military</text>
<rect x="42.5" y="151.0" width="11" height="7" fill="rgba(0,0,0,0.25)" rx="1"/>
<text x="48.0" y="156.5" font-size="3.5" fill="white" text-anchor="middle" font-family="Arial">Era II</text>
<text x="33.0" y="165.0" font-size="5" font-weight="bold" fill="#c53030" text-anchor="middle" font-family="Arial">Mercenaries</text>
<text x="12.5" y="169.0" font-size="3" fill="#718096" font-family="Arial" font-weight="bold">Cost: </text>
<text x="22.5" y="169.0" font-size="3" fill="#2d3748" font-family="Arial">6g OR 2 food</text>
<line x1="12.5" y1="173.0" x2="53.5" y2="173.0" stroke="#e53e3e" stroke-width="0.3"/>
<text x="12.5" y="176.5" font-size="3.0" fill="#2d3748" font-family="Arial">While on your mat: +2 extra attack</text>
<text x="12.5" y="180.3" font-size="2.7" fill="#2d3748" font-family="Arial">actions per era. Each used attack costs</text>
<text x="12.5" y="184.1" font-size="3.0" fill="#2d3748" font-family="Arial">1 additional gold.</text>
<rect x="10.5" y="212.0" width="45" height="3" fill="#c53030" rx="1"/>
<rect x="10.5" y="210.0" width="45" height="2" fill="#c53030"/>
<line x1="9.0" y1="150.0" x2="12.0" y2="150.0" stroke="#ccc" stroke-width="0.3"/>
<line x1="10.5" y1="148.5" x2="10.5" y2="151.5" stroke="#ccc" stroke-width="0.3"/>
<line x1="54.0" y1="150.0" x2="57.0" y2="150.0" stroke="#ccc" stroke-width="0.3"/>
<line x1="55.5" y1="148.5" x2="55.5" y2="151.5" stroke="#ccc" stroke-width="0.3"/>
<line x1="9.0" y1="215.0" x2="12.0" y2="215.0" stroke="#ccc" stroke-width="0.3"/>
<line x1="10.5" y1="213.5" x2="10.5" y2="216.5" stroke="#ccc" stroke-width="0.3"/>
<line x1="54.0" y1="215.0" x2="57.0" y2="215.0" stroke="#ccc" stroke-width="0.3"/>
<line x1="55.5" y1="213.5" x2="55.5" y2="216.5" stroke="#ccc" stroke-width="0.3"/>
<rect x="58.5" y="150.0" width="45" height="65" fill="#fff5f5" stroke="#c53030" stroke-width="0.7" rx="1.5"/>
<rect x="58.5" y="150.0" width="45" height="9" fill="#c53030" rx="1.5"/>
<rect x="58.5" y="155.0" width="45" height="4" fill="#c53030"/>
<text x="60.5" y="156.5" font-size="3.2" font-weight="bold" fill="white" font-family="Arial">Military</text>
<rect x="90.5" y="151.0" width="11" height="7" fill="rgba(0,0,0,0.25)" rx="1"/>
<text x="96.0" y="156.5" font-size="3.5" fill="white" text-anchor="middle" font-family="Arial">Era III</text>
<text x="81.0" y="165.0" font-size="5" font-weight="bold" fill="#c53030" text-anchor="middle" font-family="Arial">Fortress</text>
<text x="60.5" y="169.0" font-size="3" fill="#718096" font-family="Arial" font-weight="bold">Cost: </text>
<text x="70.5" y="169.0" font-size="3" fill="#2d3748" font-family="Arial">9g OR 3 stone</text>
<text x="60.5" y="173.0" font-size="3" fill="#718096" font-family="Arial" font-weight="bold">Place: </text>
<text x="71.5" y="173.0" font-size="3" fill="#2d3748" font-family="Arial">Any region</text>
<line x1="60.5" y1="177.0" x2="101.5" y2="177.0" stroke="#e53e3e" stroke-width="0.3"/>
<text x="60.5" y="180.5" font-size="3.0" fill="#2d3748" font-family="Arial">BUILDING — place: 1 mkt action + gold</text>
<text x="60.5" y="184.3" font-size="3.0" fill="#2d3748" font-family="Arial">per track level. +3 defense to this</text>
<text x="60.5" y="188.1" font-size="3.0" fill="#2d3748" font-family="Arial">region while on your mat.</text>
<rect x="58.5" y="212.0" width="45" height="3" fill="#c53030" rx="1"/>
<rect x="58.5" y="210.0" width="45" height="2" fill="#c53030"/>
<line x1="57.0" y1="150.0" x2="60.0" y2="150.0" stroke="#ccc" stroke-width="0.3"/>
<line x1="58.5" y1="148.5" x2="58.5" y2="151.5" stroke="#ccc" stroke-width="0.3"/>
<line x1="102.0" y1="150.0" x2="105.0" y2="150.0" stroke="#ccc" stroke-width="0.3"/>
<line x1="103.5" y1="148.5" x2="103.5" y2="151.5" stroke="#ccc" stroke-width="0.3"/>
<line x1="57.0" y1="215.0" x2="60.0" y2="215.0" stroke="#ccc" stroke-width="0.3"/>
<line x1="58.5" y1="213.5" x2="58.5" y2="216.5" stroke="#ccc" stroke-width="0.3"/>
<line x1="102.0" y1="215.0" x2="105.0" y2="215.0" stroke="#ccc" stroke-width="0.3"/>
<line x1="103.5" y1="213.5" x2="103.5" y2="216.5" stroke="#ccc" stroke-width="0.3"/>
<rect x="106.5" y="150.0" width="45" height="65" fill="#fff5f5" stroke="#c53030" stroke-width="0.7" rx="1.5"/>
<rect x="106.5" y="150.0" width="45" height="9" fill="#c53030" rx="1.5"/>
<rect x="106.5" y="155.0" width="45" height="4" fill="#c53030"/>
<text x="108.5" y="156.5" font-size="3.2" font-weight="bold" fill="white" font-family="Arial">Military</text>
<rect x="138.5" y="151.0" width="11" height="7" fill="rgba(0,0,0,0.25)" rx="1"/>
<text x="144.0" y="156.5" font-size="3.5" fill="white" text-anchor="middle" font-family="Arial">Era III</text>
<text x="129.0" y="165.0" font-size="5" font-weight="bold" fill="#c53030" text-anchor="middle" font-family="Arial">Iron Legion</text>
<text x="108.5" y="169.0" font-size="3" fill="#718096" font-family="Arial" font-weight="bold">Cost: </text>
<text x="118.5" y="169.0" font-size="3" fill="#2d3748" font-family="Arial">9g OR 2 iron + 1 food</text>
<line x1="108.5" y1="173.0" x2="149.5" y2="173.0" stroke="#e53e3e" stroke-width="0.3"/>
<text x="108.5" y="176.5" font-size="3.0" fill="#2d3748" font-family="Arial">+2 base attack strength while on your</text>
<text x="108.5" y="180.3" font-size="2.7" fill="#2d3748" font-family="Arial">mat. Requires Military Academy on your</text>
<text x="108.5" y="184.1" font-size="3.0" fill="#2d3748" font-family="Arial">Empire mat.</text>
<rect x="106.5" y="212.0" width="45" height="3" fill="#c53030" rx="1"/>
<rect x="106.5" y="210.0" width="45" height="2" fill="#c53030"/>
<line x1="105.0" y1="150.0" x2="108.0" y2="150.0" stroke="#ccc" stroke-width="0.3"/>
<line x1="106.5" y1="148.5" x2="106.5" y2="151.5" stroke="#ccc" stroke-width="0.3"/>
<line x1="150.0" y1="150.0" x2="153.0" y2="150.0" stroke="#ccc" stroke-width="0.3"/>
<line x1="151.5" y1="148.5" x2="151.5" y2="151.5" stroke="#ccc" stroke-width="0.3"/>
<line x1="105.0" y1="215.0" x2="108.0" y2="215.0" stroke="#ccc" stroke-width="0.3"/>
<line x1="106.5" y1="213.5" x2="106.5" y2="216.5" stroke="#ccc" stroke-width="0.3"/>
<line x1="150.0" y1="215.0" x2="153.0" y2="215.0" stroke="#ccc" stroke-width="0.3"/>
<line x1="151.5" y1="213.5" x2="151.5" y2="216.5" stroke="#ccc" stroke-width="0.3"/>
<rect x="154.5" y="150.0" width="45" height="65" fill="#fff5f5" stroke="#c53030" stroke-width="0.7" rx="1.5"/>
<rect x="154.5" y="150.0" width="45" height="9" fill="#c53030" rx="1.5"/>
<rect x="154.5" y="155.0" width="45" height="4" fill="#c53030"/>
<text x="156.5" y="156.5" font-size="3.2" font-weight="bold" fill="white" font-family="Arial">Military</text>
<rect x="186.5" y="151.0" width="11" height="7" fill="rgba(0,0,0,0.25)" rx="1"/>
<text x="192.0" y="156.5" font-size="3.5" fill="white" text-anchor="middle" font-family="Arial">Era II</text>
<text x="177.0" y="165.0" font-size="5" font-weight="bold" fill="#c53030" text-anchor="middle" font-family="Arial">Border Quarries</text>
<text x="156.5" y="169.0" font-size="3" fill="#718096" font-family="Arial" font-weight="bold">Cost: </text>
<text x="166.5" y="169.0" font-size="3" fill="#2d3748" font-family="Arial">6g OR 1 iron</text>
<line x1="156.5" y1="173.0" x2="197.5" y2="173.0" stroke="#e53e3e" stroke-width="0.3"/>
<text x="156.5" y="176.5" font-size="3.0" fill="#2d3748" font-family="Arial">All your mountain regions bordering</text>
<text x="156.5" y="180.3" font-size="3.0" fill="#2d3748" font-family="Arial">another player produce 1 Stone per</text>
<text x="156.5" y="184.1" font-size="3.0" fill="#2d3748" font-family="Arial">round, regardless of buildings.</text>
<rect x="154.5" y="212.0" width="45" height="3" fill="#c53030" rx="1"/>
<rect x="154.5" y="210.0" width="45" height="2" fill="#c53030"/>
<line x1="153.0" y1="150.0" x2="156.0" y2="150.0" stroke="#ccc" stroke-width="0.3"/>
<line x1="154.5" y1="148.5" x2="154.5" y2="151.5" stroke="#ccc" stroke-width="0.3"/>
<line x1="198.0" y1="150.0" x2="201.0" y2="150.0" stroke="#ccc" stroke-width="0.3"/>
<line x1="199.5" y1="148.5" x2="199.5" y2="151.5" stroke="#ccc" stroke-width="0.3"/>
<line x1="153.0" y1="215.0" x2="156.0" y2="215.0" stroke="#ccc" stroke-width="0.3"/>
<line x1="154.5" y1="213.5" x2="154.5" y2="216.5" stroke="#ccc" stroke-width="0.3"/>
<line x1="198.0" y1="215.0" x2="201.0" y2="215.0" stroke="#ccc" stroke-width="0.3"/>
<line x1="199.5" y1="213.5" x2="199.5" y2="216.5" stroke="#ccc" stroke-width="0.3"/>
<rect x="10.5" y="218.0" width="45" height="65" fill="#fff5f5" stroke="#c53030" stroke-width="0.7" rx="1.5"/>
<rect x="10.5" y="218.0" width="45" height="9" fill="#c53030" rx="1.5"/>
<rect x="10.5" y="223.0" width="45" height="4" fill="#c53030"/>
<text x="12.5" y="224.5" font-size="3.2" font-weight="bold" fill="white" font-family="Arial">Military</text>
<rect x="42.5" y="219.0" width="11" height="7" fill="rgba(0,0,0,0.25)" rx="1"/>
<text x="48.0" y="224.5" font-size="3.5" fill="white" text-anchor="middle" font-family="Arial">Era III</text>
<text x="33.0" y="233.0" font-size="5" font-weight="bold" fill="#c53030" text-anchor="middle" font-family="Arial">Border Lumber</text>
<text x="12.5" y="237.0" font-size="3" fill="#718096" font-family="Arial" font-weight="bold">Cost: </text>
<text x="22.5" y="237.0" font-size="3" fill="#2d3748" font-family="Arial">8g OR 1 iron + 1 wood</text>
<line x1="12.5" y1="241.0" x2="53.5" y2="241.0" stroke="#e53e3e" stroke-width="0.3"/>
<text x="12.5" y="244.5" font-size="3.0" fill="#2d3748" font-family="Arial">All your forest regions bordering</text>
<text x="12.5" y="248.3" font-size="2.7" fill="#2d3748" font-family="Arial">another player produce 1 Wood per round,</text>
<text x="12.5" y="252.1" font-size="3.0" fill="#2d3748" font-family="Arial">regardless of buildings.</text>
<rect x="10.5" y="280.0" width="45" height="3" fill="#c53030" rx="1"/>
<rect x="10.5" y="278.0" width="45" height="2" fill="#c53030"/>
<line x1="9.0" y1="218.0" x2="12.0" y2="218.0" stroke="#ccc" stroke-width="0.3"/>
<line x1="10.5" y1="216.5" x2="10.5" y2="219.5" stroke="#ccc" stroke-width="0.3"/>
<line x1="54.0" y1="218.0" x2="57.0" y2="218.0" stroke="#ccc" stroke-width="0.3"/>
<line x1="55.5" y1="216.5" x2="55.5" y2="219.5" stroke="#ccc" stroke-width="0.3"/>
<line x1="9.0" y1="283.0" x2="12.0" y2="283.0" stroke="#ccc" stroke-width="0.3"/>
<line x1="10.5" y1="281.5" x2="10.5" y2="284.5" stroke="#ccc" stroke-width="0.3"/>
<line x1="54.0" y1="283.0" x2="57.0" y2="283.0" stroke="#ccc" stroke-width="0.3"/>
<line x1="55.5" y1="281.5" x2="55.5" y2="284.5" stroke="#ccc" stroke-width="0.3"/>
</svg>