<?xml version="1.0" encoding="UTF-8"?>
<svg xmlns="http://www.w3.org/2000/svg" viewBox="0 0 210 297" width="210mm" height="297mm">
<rect width="210" height="297" fill="#e8e8e8"/>
<text x="105" y="8" font-size="4.5" fill="#555" text-anchor="middle" font-family="Arial">TOFTA — Market Cards (Green) — page 2/2</text>
<rect x="10.5" y="14.0" width="45" height="65" fill="#f0fff4" stroke="#276749" stroke-width="0.7" rx="1.5"/>
<rect x="10.5" y="14.0" width="45" height="9" fill="#276749" rx="1.5"/>
<rect x="10.5" y="19.0" width="45" height="4" fill="#276749"/>
<text x="12.5" y="20.5" font-size="3.2" font-weight="bold" fill="white" font-family="Arial">Market</text>
<rect x="42.5" y="15.0" width="11" height="7" fill="rgba(0,0,0,0.25)" rx="1"/>
<text x="48.0" y="20.5" font-size="3.5" fill="white" text-anchor="middle" font-family="Arial">Era III</text>
<text x="33.0" y="29.0" font-size="5" font-weight="bold" fill="#276749" text-anchor="middle" font-family="Arial">Scriptorium</text>
<text x="12.5" y="33.0" font-size="3" fill="#718096" font-family="Arial" font-weight="bold">Cost: </text>
<text x="22.5" y="33.0" font-size="3" fill="#2d3748" font-family="Arial">10g OR 2 paper</text>
<text x="12.5" y="37.0" font-size="3" fill="#718096" font-family="Arial" font-weight="bold">Place: </text>
<text x="23.5" y="37.0" font-size="3" fill="#2d3748" font-family="Arial">Any region</text>
<line x1="12.5" y1="41.0" x2="53.5" y2="41.0" stroke="#38a169" stroke-width="0.3"/>
<text x="12.5" y="44.5" font-size="3.0" fill="#2d3748" font-family="Arial">BUILDING — place: 1 mkt action + gold</text>
<text x="12.5" y="48.3" font-size="3.0" fill="#2d3748" font-family="Arial">per track level. Produces 2 Paper per</text>
<text x="12.5" y="52.1" font-size="3.0" fill="#2d3748" font-family="Arial">round.</text>
<rect x="10.5" y="76.0" width="45" height="3" fill="#276749" rx="1"/>
<rect x="10.5" y="74.0" width="45" height="2" fill="#276749"/>
<line x1="9.0" y1="14.0" x2="12.0" y2="14.0" stroke="#ccc" stroke-width="0.3"/>
<line x1="10.5" y1="12.5" x2="10.5" y2="15.5" stroke="#ccc" stroke-width="0.3"/>
<line x1="54.0" y1="14.0" x2="57.0" y2="14.0" stroke="#ccc" stroke-width="0.3"/>
<line x1="55.5" y1="12.5" x2="55.5" y2="15.5" stroke="#ccc" stroke-width="0.3"/>
<line x1="9.0" y1="79.0" x2="12.0" y2="79.0" stroke="#ccc" stroke-width="0.3"/>
<line x1="10.5" y1="77.5" x2="10.5" y2="80.5" stroke="#ccc" stroke-width="0.3"/>
<line x1="54.0" y1="79.0" x2="57.0" y2="79.0" stroke="#ccc" stroke-width="0.3"/>
<line x1="55.5" y1="77.5" x2="55.5" y2="80.5" stroke="#ccc" stroke-width="0.3"/>
</svg>