<?xml version="1.0" encoding="UTF-8"?>
<svg xmlns="http://www.w3.org/2000/svg" viewBox="0 0 210 297" width="210mm" height="297mm">
<rect width="210" height="297" fill="#e8e8e8"/>
<text x="105" y="8" font-size="4.5" fill="#555" text-anchor="middle" font-family="Arial">TOFTA — Action Cards (Blue, execute on purchase)</text>
<rect x="10.5" y="14.0" width="45" height="65" fill="#ebf8ff" stroke="#2c5282" stroke-width="0.7" rx="1.5"/>
<rect x="10.5" y="14.0" width="45" height="9" fill="#2c5282" rx="1.5"/>
<rect x="10.5" y="19.0" width="45" height="4" fill="#2c5282"/>
<text x="12.5" y="20.5" font-size="3.2" font-weight="bold" fill="white" font-family="Arial">Action</text>
<rect x="42.5" y="15.0" width="11" height="7" fill="rgba(0,0,0,0.25)" rx="1"/>
<text x="48.0" y="20.5" font-size="3.5" fill="white" text-anchor="middle" font-family="Arial">Era I</text>
<text x="33.0" y="29.0" font-size="5" font-weight="bold" fill="#2c5282" text-anchor="middle" font-family="Arial">Scout</text>
<text x="12.5" y="33.0" font-size="3" fill="#718096" font-family="Arial" font-weight="bold">Cost: </text>
<text x="22.5" y="33.0" font-size="3" fill="#2d3748" font-family="Arial">3g</text>
<line x1="12.5" y1="37.0" x2="53.5" y2="37.0" stroke="#3182ce" stroke-width="0.3"/>
<text x="12.5" y="40.5" font-size="2.7" fill="#2d3748" font-family="Arial">Draw 3 from the Modifier Draw Pile. Add</text>
<text x="12.5" y="44.3" font-size="2.7" fill="#2d3748" font-family="Arial">1 to your discard pile. Return the rest</text>
<text x="12.5" y="48.1" font-size="2.7" fill="#2d3748" font-family="Arial">to the bottom of the Draw Pile. EXECUTE</text>
<text x="12.5" y="51.9" font-size="3.0" fill="#2d3748" font-family="Arial">ON PURCHASE — then trash.</text>
<rect x="10.5" y="76.0" width="45" height="3" fill="#2c5282" rx="1"/>
<rect x="10.5" y="74.0" width="45" height="2" fill="#2c5282"/>
<line x1="9.0" y1="14.0" x2="12.0" y2="14.0" stroke="#ccc" stroke-width="0.3"/>
<line x1="10.5" y1="12.5" x2="10.5" y2="15.5" stroke="#ccc" stroke-width="0.3"/>
<line x1="54.0" y1="14.0" x2="57.0" y2="14.0" stroke="#ccc" stroke-width="0.3"/>
<line x1="55.5" y1="12.5" x2="55.5" y2="15.5" stroke="#ccc" stroke-width="0.3"/>
<line x1="9.0" y1="79.0" x2="12.0" y2="79.0" stroke="#ccc" stroke-width="0.3"/>
<line x1="10.5" y1="77.5" x2="10.5" y2="80.5" stroke="#ccc" stroke-width="0.3"/>
<line x1="54.0" y1="79.0" x2="57.0" y2="79.0" stroke="#ccc" stroke-width="0.3"/>
<line x1="55.5" y1="77.5" x2="55.5" y2="80.5" stroke="#ccc" stroke-width="0.3"/>
<rect x="58.5" y="14.0" width="45" height="65" fill="#ebf8ff" stroke="#2c5282" stroke-width="0.7" rx="1.5"/>
<rect x="58.5" y="14.0" width="45" height="9" fill="#2c5282" rx="1.5"/>
<rect x="58.5" y="19.0" width="45" height="4" fill="#2c5282"/>
<text x="60.5" y="20.5" font-size="3.2" font-weight="bold" fill="white" font-family="Arial">Action</text>
<rect x="90.5" y="15.0" width="11" height="7" fill="rgba(0,0,0,0.25)" rx="1"/>
<text x="96.0" y="20.5" font-size="3.5" fill="white" text-anchor="middle" font-family="Arial">Era I</text>
<text x="81.0" y="29.0" font-size="5" font-weight="bold" fill="#2c5282" text-anchor="middle" font-family="Arial">Purge</text>
<text x="60.5" y="33.0" font-size="3" fill="#718096" font-family="Arial" font-weight="bold">Cost: </text>
<text x="70.5" y="33.0" font-size="3" fill="#2d3748" font-family="Arial">3g</text>
<line x1="60.5" y1="37.0" x2="101.5" y2="37.0" stroke="#3182ce" stroke-width="0.3"/>
<text x="60.5" y="40.5" font-size="3.0" fill="#2d3748" font-family="Arial">Perform two Cull actions at no cost.</text>
<text x="60.5" y="44.3" font-size="3.0" fill="#2d3748" font-family="Arial">EXECUTE ON PURCHASE — then trash.</text>
<rect x="58.5" y="76.0" width="45" height="3" fill="#2c5282" rx="1"/>
<rect x="58.5" y="74.0" width="45" height="2" fill="#2c5282"/>
<line x1="57.0" y1="14.0" x2="60.0" y2="14.0" stroke="#ccc" stroke-width="0.3"/>
<line x1="58.5" y1="12.5" x2="58.5" y2="15.5" stroke="#ccc" stroke-width="0.3"/>
<line x1="102.0" y1="14.0" x2="105.0" y2="14.0" stroke="#ccc" stroke-width="0.3"/>
<line x1="103.5" y1="12.5" x2="103.5" y2="15.5" stroke="#ccc" stroke-width="0.3"/>
<line x1="57.0" y1="79.0" x2="60.0" y2="79.0" stroke="#ccc" stroke-width="0.3"/>
<line x1="58.5" y1="77.5" x2="58.5" y2="80.5" stroke="#ccc" stroke-width="0.3"/>
<line x1="102.0" y1="79.0" x2="105.0" y2="79.0" stroke="#ccc" stroke-width="0.3"/>
<line x1="103.5" y1="77.5" x2="103.5" y2="80.5" stroke="#ccc" stroke-width="0.3"/>
<rect x="106.5" y="14.0" width="45" height="65" fill="#ebf8ff" stroke="#2c5282" stroke-width="0.7" rx="1.5"/>
<rect x="106.5" y="14.0" width="45" height="9" fill="#2c5282" rx="1.5"/>
<rect x="106.5" y="19.0" width="45" height="4" fill="#2c5282"/>
<text x="108.5" y="20.5" font-size="3.2" font-weight="bold" fill="white" font-family="Arial">Action</text>
<rect x="138.5" y="15.0" width="11" height="7" fill="rgba(0,0,0,0.25)" rx="1"/>
<text x="144.0" y="20.5" font-size="3.5" fill="white" text-anchor="middle" font-family="Arial">Era II</text>
<text x="129.0" y="27.0" font-size="4.5" font-weight="bold" fill="#2c5282" text-anchor="middle" font-family="Arial">Forced</text>
<text x="129.0" y="32.0" font-size="4.5" font-weight="bold" fill="#2c5282" text-anchor="middle" font-family="Arial">Conscription</text>
<text x="108.5" y="36.0" font-size="3" fill="#718096" font-family="Arial" font-weight="bold">Cost: </text>
<text x="118.5" y="36.0" font-size="3" fill="#2d3748" font-family="Arial">5g OR 1 food</text>
<line x1="108.5" y1="40.0" x2="149.5" y2="40.0" stroke="#3182ce" stroke-width="0.3"/>
<text x="108.5" y="43.5" font-size="2.7" fill="#2d3748" font-family="Arial">Draw 4 from the Modifier Draw Pile. Add</text>
<text x="108.5" y="47.3" font-size="2.7" fill="#2d3748" font-family="Arial">2 to your discard pile. Return the rest</text>
<text x="108.5" y="51.1" font-size="2.7" fill="#2d3748" font-family="Arial">to the bottom of the Draw Pile. EXECUTE</text>
<text x="108.5" y="54.9" font-size="3.0" fill="#2d3748" font-family="Arial">ON PURCHASE — then trash.</text>
<rect x="106.5" y="76.0" width="45" height="3" fill="#2c5282" rx="1"/>
<rect x="106.5" y="74.0" width="45" height="2" fill="#2c5282"/>
<line x1="105.0" y1="14.0" x2="108.0" y2="14.0" stroke="#ccc" stroke-width="0.3"/>
<line x1="106.5" y1="12.5" x2="106.5" y2="15.5" stroke="#ccc" stroke-width="0.3"/>
<line x1="150.0" y1="14.0" x2="153.0" y2="14.0" stroke="#ccc" stroke-width="0.3"/>
<line x1="151.5" y1="12.5" x2="151.5" y2="15.5" stroke="#ccc" stroke-width="0.3"/>
<line x1="105.0" y1="79.0" x2="108.0" y2="79.0" stroke="#ccc" stroke-width="0.3"/>
<line x1="106.5" y1="77.5" x2="106.5" y2="80.5" stroke="#ccc" stroke-width="0.3"/>
<line x1="150.0" y1="79.0" x2="153.0" y2="79.0" stroke="#ccc" stroke-width="0.3"/>
<line x1="151.5" y1="77.5" x2="151.5" y2="80.5" stroke="#ccc" stroke-width="0.3"/>
<rect x="154.5" y="14.0" width="45" height="65" fill="#ebf8ff" stroke="#2c5282" stroke-width="0.7" rx="1.5"/>
<rect x="154.5" y="14.0" width="45" height="9" fill="#2c5282" rx="1.5"/>
<rect x="154.5" y="19.0" width="45" height="4" fill="#2c5282"/>
<text x="156.5" y="20.5" font-size="3.2" font-weight="bold" fill="white" font-family="Arial">Action</text>
<rect x="186.5" y="15.0" width="11" height="7" fill="rgba(0,0,0,0.25)" rx="1"/>
<text x="192.0" y="20.5" font-size="3.5" fill="white" text-anchor="middle" font-family="Arial">Era II</text>
<text x="177.0" y="29.0" font-size="5" font-weight="bold" fill="#2c5282" text-anchor="middle" font-family="Arial">Reformation</text>
<text x="156.5" y="33.0" font-size="3" fill="#718096" font-family="Arial" font-weight="bold">Cost: </text>
<text x="166.5" y="33.0" font-size="3" fill="#2d3748" font-family="Arial">5g OR 1 paper</text>
<line x1="156.5" y1="37.0" x2="197.5" y2="37.0" stroke="#3182ce" stroke-width="0.3"/>
<text x="156.5" y="40.5" font-size="3.0" fill="#2d3748" font-family="Arial">Draw 3 from the top of your modifier</text>
<text x="156.5" y="44.3" font-size="3.0" fill="#2d3748" font-family="Arial">deck. Trash 1 (Fail/Success cannot be</text>
<text x="156.5" y="48.1" font-size="2.7" fill="#2d3748" font-family="Arial">trashed). Discard the rest. EXECUTE ON</text>
<text x="156.5" y="51.9" font-size="3.0" fill="#2d3748" font-family="Arial">PURCHASE — then trash.</text>
<rect x="154.5" y="76.0" width="45" height="3" fill="#2c5282" rx="1"/>
<rect x="154.5" y="74.0" width="45" height="2" fill="#2c5282"/>
<line x1="153.0" y1="14.0" x2="156.0" y2="14.0" stroke="#ccc" stroke-width="0.3"/>
<line x1="154.5" y1="12.5" x2="154.5" y2="15.5" stroke="#ccc" stroke-width="0.3"/>
<line x1="198.0" y1="14.0" x2="201.0" y2="14.0" stroke="#ccc" stroke-width="0.3"/>
<line x1="199.5" y1="12.5" x2="199.5" y2="15.5" stroke="#ccc" stroke-width="0.3"/>
<line x1="153.0" y1="79.0" x2="156.0" y2="79.0" stroke="#ccc" stroke-width="0.3"/>
<line x1="154.5" y1="77.5" x2="154.5" y2="80.5" stroke="#ccc" stroke-width="0.3"/>
<line x1="198.0" y1="79.0" x2="201.0" y2="79.0" stroke="#ccc" stroke-width="0.3"/>
<line x1="199.5" y1="77.5" x2="199.5" y2="80.5" stroke="#ccc" stroke-width="0.3"/>
<rect x="10.5" y="82.0" width="45" height="65" fill="#ebf8ff" stroke="#2c5282" stroke-width="0.7" rx="1.5"/>
<rect x="10.5" y="82.0" width="45" height="9" fill="#2c5282" rx="1.5"/>
<rect x="10.5" y="87.0" width="45" height="4" fill="#2c5282"/>
<text x="12.5" y="88.5" font-size="3.2" font-weight="bold" fill="white" font-family="Arial">Action</text>
<rect x="42.5" y="83.0" width="11" height="7" fill="rgba(0,0,0,0.25)" rx="1"/>
<text x="48.0" y="88.5" font-size="3.5" fill="white" text-anchor="middle" font-family="Arial">Era II</text>
<text x="33.0" y="97.0" font-size="5" font-weight="bold" fill="#2c5282" text-anchor="middle" font-family="Arial">Battle Hymn</text>
<text x="12.5" y="101.0" font-size="3" fill="#718096" font-family="Arial" font-weight="bold">Cost: </text>
<text x="22.5" y="101.0" font-size="3" fill="#2d3748" font-family="Arial">4g OR 1 cloth</text>
<line x1="12.5" y1="105.0" x2="53.5" y2="105.0" stroke="#3182ce" stroke-width="0.3"/>
<text x="12.5" y="108.5" font-size="2.7" fill="#2d3748" font-family="Arial">Draw 3 from the Modifier Draw Pile and</text>
<text x="12.5" y="112.3" font-size="2.7" fill="#2d3748" font-family="Arial">add all 3 to your discard pile. EXECUTE</text>
<text x="12.5" y="116.1" font-size="3.0" fill="#2d3748" font-family="Arial">ON PURCHASE — then trash.</text>
<rect x="10.5" y="144.0" width="45" height="3" fill="#2c5282" rx="1"/>
<rect x="10.5" y="142.0" width="45" height="2" fill="#2c5282"/>
<line x1="9.0" y1="82.0" x2="12.0" y2="82.0" stroke="#ccc" stroke-width="0.3"/>
<line x1="10.5" y1="80.5" x2="10.5" y2="83.5" stroke="#ccc" stroke-width="0.3"/>
<line x1="54.0" y1="82.0" x2="57.0" y2="82.0" stroke="#ccc" stroke-width="0.3"/>
<line x1="55.5" y1="80.5" x2="55.5" y2="83.5" stroke="#ccc" stroke-width="0.3"/>
<line x1="9.0" y1="147.0" x2="12.0" y2="147.0" stroke="#ccc" stroke-width="0.3"/>
<line x1="10.5" y1="145.5" x2="10.5" y2="148.5" stroke="#ccc" stroke-width="0.3"/>
<line x1="54.0" y1="147.0" x2="57.0" y2="147.0" stroke="#ccc" stroke-width="0.3"/>
<line x1="55.5" y1="145.5" x2="55.5" y2="148.5" stroke="#ccc" stroke-width="0.3"/>
<rect x="58.5" y="82.0" width="45" height="65" fill="#ebf8ff" stroke="#2c5282" stroke-width="0.7" rx="1.5"/>
<rect x="58.5" y="82.0" width="45" height="9" fill="#2c5282" rx="1.5"/>
<rect x="58.5" y="87.0" width="45" height="4" fill="#2c5282"/>
<text x="60.5" y="88.5" font-size="3.2" font-weight="bold" fill="white" font-family="Arial">Action</text>
<rect x="90.5" y="83.0" width="11" height="7" fill="rgba(0,0,0,0.25)" rx="1"/>
<text x="96.0" y="88.5" font-size="3.5" fill="white" text-anchor="middle" font-family="Arial">Era III</text>
<text x="81.0" y="97.0" font-size="5" font-weight="bold" fill="#2c5282" text-anchor="middle" font-family="Arial">Grand Purge</text>
<text x="60.5" y="101.0" font-size="3" fill="#718096" font-family="Arial" font-weight="bold">Cost: </text>
<text x="70.5" y="101.0" font-size="3" fill="#2d3748" font-family="Arial">7g OR 1 iron</text>
<line x1="60.5" y1="105.0" x2="101.5" y2="105.0" stroke="#3182ce" stroke-width="0.3"/>
<text x="60.5" y="108.5" font-size="2.7" fill="#2d3748" font-family="Arial">Perform three Cull actions at no cost.</text>
<text x="60.5" y="112.3" font-size="3.0" fill="#2d3748" font-family="Arial">EXECUTE ON PURCHASE — then trash.</text>
<rect x="58.5" y="144.0" width="45" height="3" fill="#2c5282" rx="1"/>
<rect x="58.5" y="142.0" width="45" height="2" fill="#2c5282"/>
<line x1="57.0" y1="82.0" x2="60.0" y2="82.0" stroke="#ccc" stroke-width="0.3"/>
<line x1="58.5" y1="80.5" x2="58.5" y2="83.5" stroke="#ccc" stroke-width="0.3"/>
<line x1="102.0" y1="82.0" x2="105.0" y2="82.0" stroke="#ccc" stroke-width="0.3"/>
<line x1="103.5" y1="80.5" x2="103.5" y2="83.5" stroke="#ccc" stroke-width="0.3"/>
<line x1="57.0" y1="147.0" x2="60.0" y2="147.0" stroke="#ccc" stroke-width="0.3"/>
<line x1="58.5" y1="145.5" x2="58.5" y2="148.5" stroke="#ccc" stroke-width="0.3"/>
<line x1="102.0" y1="147.0" x2="105.0" y2="147.0" stroke="#ccc" stroke-width="0.3"/>
<line x1="103.5" y1="145.5" x2="103.5" y2="148.5" stroke="#ccc" stroke-width="0.3"/>
<rect x="106.5" y="82.0" width="45" height="65" fill="#ebf8ff" stroke="#2c5282" stroke-width="0.7" rx="1.5"/>
<rect x="106.5" y="82.0" width="45" height="9" fill="#2c5282" rx="1.5"/>
<rect x="106.5" y="87.0" width="45" height="4" fill="#2c5282"/>
<text x="108.5" y="88.5" font-size="3.2" font-weight="bold" fill="white" font-family="Arial">Action</text>
<rect x="138.5" y="83.0" width="11" height="7" fill="rgba(0,0,0,0.25)" rx="1"/>
<text x="144.0" y="88.5" font-size="3.5" fill="white" text-anchor="middle" font-family="Arial">Era III</text>
<text x="129.0" y="97.0" font-size="5" font-weight="bold" fill="#2c5282" text-anchor="middle" font-family="Arial">Propaganda</text>
<text x="108.5" y="101.0" font-size="3" fill="#718096" font-family="Arial" font-weight="bold">Cost: </text>
<text x="118.5" y="101.0" font-size="3" fill="#2d3748" font-family="Arial">6g OR 1 wild + 1 paper</text>
<line x1="108.5" y1="105.0" x2="149.5" y2="105.0" stroke="#3182ce" stroke-width="0.3"/>
<text x="108.5" y="108.5" font-size="2.7" fill="#2d3748" font-family="Arial">Draw 5 from the Modifier Draw Pile. Add</text>
<text x="108.5" y="112.3" font-size="2.7" fill="#2d3748" font-family="Arial">3 to your discard pile. Return the rest</text>
<text x="108.5" y="116.1" font-size="2.7" fill="#2d3748" font-family="Arial">to the bottom of the Draw Pile. EXECUTE</text>
<text x="108.5" y="119.9" font-size="3.0" fill="#2d3748" font-family="Arial">ON PURCHASE — then trash.</text>
<rect x="106.5" y="144.0" width="45" height="3" fill="#2c5282" rx="1"/>
<rect x="106.5" y="142.0" width="45" height="2" fill="#2c5282"/>
<line x1="105.0" y1="82.0" x2="108.0" y2="82.0" stroke="#ccc" stroke-width="0.3"/>
<line x1="106.5" y1="80.5" x2="106.5" y2="83.5" stroke="#ccc" stroke-width="0.3"/>
<line x1="150.0" y1="82.0" x2="153.0" y2="82.0" stroke="#ccc" stroke-width="0.3"/>
<line x1="151.5" y1="80.5" x2="151.5" y2="83.5" stroke="#ccc" stroke-width="0.3"/>
<line x1="105.0" y1="147.0" x2="108.0" y2="147.0" stroke="#ccc" stroke-width="0.3"/>
<line x1="106.5" y1="145.5" x2="106.5" y2="148.5" stroke="#ccc" stroke-width="0.3"/>
<line x1="150.0" y1="147.0" x2="153.0" y2="147.0" stroke="#ccc" stroke-width="0.3"/>
<line x1="151.5" y1="145.5" x2="151.5" y2="148.5" stroke="#ccc" stroke-width="0.3"/>
<rect x="154.5" y="82.0" width="45" height="65" fill="#ebf8ff" stroke="#2c5282" stroke-width="0.7" rx="1.5"/>
<rect x="154.5" y="82.0" width="45" height="9" fill="#2c5282" rx="1.5"/>
<rect x="154.5" y="87.0" width="45" height="4" fill="#2c5282"/>
<text x="156.5" y="88.5" font-size="3.2" font-weight="bold" fill="white" font-family="Arial">Action</text>
<rect x="186.5" y="83.0" width="11" height="7" fill="rgba(0,0,0,0.25)" rx="1"/>
<text x="192.0" y="88.5" font-size="3.5" fill="white" text-anchor="middle" font-family="Arial">Era III</text>
<text x="177.0" y="97.0" font-size="5" font-weight="bold" fill="#2c5282" text-anchor="middle" font-family="Arial">Overhaul</text>
<text x="156.5" y="101.0" font-size="3" fill="#718096" font-family="Arial" font-weight="bold">Cost: </text>
<text x="166.5" y="101.0" font-size="3" fill="#2d3748" font-family="Arial">8g OR 2 paper</text>
<line x1="156.5" y1="105.0" x2="197.5" y2="105.0" stroke="#3182ce" stroke-width="0.3"/>
<text x="156.5" y="108.5" font-size="2.7" fill="#2d3748" font-family="Arial">Draw 3 from top of your modifier deck,</text>
<text x="156.5" y="112.3" font-size="2.7" fill="#2d3748" font-family="Arial">trash 1 (Fail/Success immune), discard</text>
<text x="156.5" y="116.1" font-size="2.7" fill="#2d3748" font-family="Arial">rest. Then draw 3 from Draw Pile, add 2,</text>
<text x="156.5" y="119.9" font-size="2.7" fill="#2d3748" font-family="Arial">return 1 to bottom. EXECUTE ON PURCHASE</text>
<text x="156.5" y="123.7" font-size="3.0" fill="#2d3748" font-family="Arial">— then trash.</text>
<rect x="154.5" y="144.0" width="45" height="3" fill="#2c5282" rx="1"/>
<rect x="154.5" y="142.0" width="45" height="2" fill="#2c5282"/>
<line x1="153.0" y1="82.0" x2="156.0" y2="82.0" stroke="#ccc" stroke-width="0.3"/>
<line x1="154.5" y1="80.5" x2="154.5" y2="83.5" stroke="#ccc" stroke-width="0.3"/>
<line x1="198.0" y1="82.0" x2="201.0" y2="82.0" stroke="#ccc" stroke-width="0.3"/>
<line x1="199.5" y1="80.5" x2="199.5" y2="83.5" stroke="#ccc" stroke-width="0.3"/>
<line x1="153.0" y1="147.0" x2="156.0" y2="147.0" stroke="#ccc" stroke-width="0.3"/>
<line x1="154.5" y1="145.5" x2="154.5" y2="148.5" stroke="#ccc" stroke-width="0.3"/>
<line x1="198.0" y1="147.0" x2="201.0" y2="147.0" stroke="#ccc" stroke-width="0.3"/>
<line x1="199.5" y1="145.5" x2="199.5" y2="148.5" stroke="#ccc" stroke-width="0.3"/>
</svg>