<?xml version="1.0" encoding="UTF-8"?>
<svg xmlns="http://www.w3.org/2000/svg" viewBox="0 0 210 297" width="210mm" height="297mm">
<rect width="210" height="297" fill="#e8e8e8"/>
<text x="105" y="8" font-size="4.5" fill="#555" text-anchor="middle" font-family="Arial">TOFTA — Independent State Deck (shared, 11 cards)</text>
<rect x="10.5" y="14.0" width="45" height="65" fill="#f0fff4" stroke="#22543d" stroke-width="0.7" rx="1.5"/>
<rect x="10.5" y="14.0" width="45" height="9" fill="#22543d" rx="1.5"/>
<rect x="10.5" y="19.0" width="45" height="4" fill="#22543d"/>
<text x="12.5" y="20.5" font-size="3.2" font-weight="bold" fill="white" font-family="Arial">IndState</text>
<text x="33.0" y="29.0" font-size="5" font-weight="bold" fill="#22543d" text-anchor="middle" font-family="Arial">−2</text>
<line x1="12.5" y1="33.0" x2="53.5" y2="33.0" stroke="#276749" stroke-width="0.3"/>
<text x="12.5" y="36.5" font-size="3.0" fill="#2d3748" font-family="Arial">Independent State deck. Reshuffled</text>
<text x="12.5" y="40.3" font-size="3.0" fill="#2d3748" font-family="Arial">before every attack against an</text>
<text x="12.5" y="44.1" font-size="3.0" fill="#2d3748" font-family="Arial">independent region.</text>
<rect x="10.5" y="76.0" width="45" height="3" fill="#22543d" rx="1"/>
<rect x="10.5" y="74.0" width="45" height="2" fill="#22543d"/>
<line x1="9.0" y1="14.0" x2="12.0" y2="14.0" stroke="#ccc" stroke-width="0.3"/>
<line x1="10.5" y1="12.5" x2="10.5" y2="15.5" stroke="#ccc" stroke-width="0.3"/>
<line x1="54.0" y1="14.0" x2="57.0" y2="14.0" stroke="#ccc" stroke-width="0.3"/>
<line x1="55.5" y1="12.5" x2="55.5" y2="15.5" stroke="#ccc" stroke-width="0.3"/>
<line x1="9.0" y1="79.0" x2="12.0" y2="79.0" stroke="#ccc" stroke-width="0.3"/>
<line x1="10.5" y1="77.5" x2="10.5" y2="80.5" stroke="#ccc" stroke-width="0.3"/>
<line x1="54.0" y1="79.0" x2="57.0" y2="79.0" stroke="#ccc" stroke-width="0.3"/>
<line x1="55.5" y1="77.5" x2="55.5" y2="80.5" stroke="#ccc" stroke-width="0.3"/>
<rect x="58.5" y="14.0" width="45" height="65" fill="#f0fff4" stroke="#22543d" stroke-width="0.7" rx="1.5"/>
<rect x="58.5" y="14.0" width="45" height="9" fill="#22543d" rx="1.5"/>
<rect x="58.5" y="19.0" width="45" height="4" fill="#22543d"/>
<text x="60.5" y="20.5" font-size="3.2" font-weight="bold" fill="white" font-family="Arial">IndState</text>
<text x="81.0" y="29.0" font-size="5" font-weight="bold" fill="#22543d" text-anchor="middle" font-family="Arial">−1</text>
<line x1="60.5" y1="33.0" x2="101.5" y2="33.0" stroke="#276749" stroke-width="0.3"/>
<text x="60.5" y="36.5" font-size="3.0" fill="#2d3748" font-family="Arial">Independent State deck. Reshuffled</text>
<text x="60.5" y="40.3" font-size="3.0" fill="#2d3748" font-family="Arial">before every attack against an</text>
<text x="60.5" y="44.1" font-size="3.0" fill="#2d3748" font-family="Arial">independent region.</text>
<rect x="58.5" y="76.0" width="45" height="3" fill="#22543d" rx="1"/>
<rect x="58.5" y="74.0" width="45" height="2" fill="#22543d"/>
<line x1="57.0" y1="14.0" x2="60.0" y2="14.0" stroke="#ccc" stroke-width="0.3"/>
<line x1="58.5" y1="12.5" x2="58.5" y2="15.5" stroke="#ccc" stroke-width="0.3"/>
<line x1="102.0" y1="14.0" x2="105.0" y2="14.0" stroke="#ccc" stroke-width="0.3"/>
<line x1="103.5" y1="12.5" x2="103.5" y2="15.5" stroke="#ccc" stroke-width="0.3"/>
<line x1="57.0" y1="79.0" x2="60.0" y2="79.0" stroke="#ccc" stroke-width="0.3"/>
<line x1="58.5" y1="77.5" x2="58.5" y2="80.5" stroke="#ccc" stroke-width="0.3"/>
<line x1="102.0" y1="79.0" x2="105.0" y2="79.0" stroke="#ccc" stroke-width="0.3"/>
<line x1="103.5" y1="77.5" x2="103.5" y2="80.5" stroke="#ccc" stroke-width="0.3"/>
<rect x="106.5" y="14.0" width="45" height="65" fill="#f0fff4" stroke="#22543d" stroke-width="0.7" rx="1.5"/>
<rect x="106.5" y="14.0" width="45" height="9" fill="#22543d" rx="1.5"/>
<rect x="106.5" y="19.0" width="45" height="4" fill="#22543d"/>
<text x="108.5" y="20.5" font-size="3.2" font-weight="bold" fill="white" font-family="Arial">IndState</text>
<text x="129.0" y="29.0" font-size="5" font-weight="bold" fill="#22543d" text-anchor="middle" font-family="Arial">−1</text>
<line x1="108.5" y1="33.0" x2="149.5" y2="33.0" stroke="#276749" stroke-width="0.3"/>
<text x="108.5" y="36.5" font-size="3.0" fill="#2d3748" font-family="Arial">Independent State deck. Reshuffled</text>
<text x="108.5" y="40.3" font-size="3.0" fill="#2d3748" font-family="Arial">before every attack against an</text>
<text x="108.5" y="44.1" font-size="3.0" fill="#2d3748" font-family="Arial">independent region.</text>
<rect x="106.5" y="76.0" width="45" height="3" fill="#22543d" rx="1"/>
<rect x="106.5" y="74.0" width="45" height="2" fill="#22543d"/>
<line x1="105.0" y1="14.0" x2="108.0" y2="14.0" stroke="#ccc" stroke-width="0.3"/>
<line x1="106.5" y1="12.5" x2="106.5" y2="15.5" stroke="#ccc" stroke-width="0.3"/>
<line x1="150.0" y1="14.0" x2="153.0" y2="14.0" stroke="#ccc" stroke-width="0.3"/>
<line x1="151.5" y1="12.5" x2="151.5" y2="15.5" stroke="#ccc" stroke-width="0.3"/>
<line x1="105.0" y1="79.0" x2="108.0" y2="79.0" stroke="#ccc" stroke-width="0.3"/>
<line x1="106.5" y1="77.5" x2="106.5" y2="80.5" stroke="#ccc" stroke-width="0.3"/>
<line x1="150.0" y1="79.0" x2="153.0" y2="79.0" stroke="#ccc" stroke-width="0.3"/>
<line x1="151.5" y1="77.5" x2="151.5" y2="80.5" stroke="#ccc" stroke-width="0.3"/>
<rect x="154.5" y="14.0" width="45" height="65" fill="#f0fff4" stroke="#22543d" stroke-width="0.7" rx="1.5"/>
<rect x="154.5" y="14.0" width="45" height="9" fill="#22543d" rx="1.5"/>
<rect x="154.5" y="19.0" width="45" height="4" fill="#22543d"/>
<text x="156.5" y="20.5" font-size="3.2" font-weight="bold" fill="white" font-family="Arial">IndState</text>
<text x="177.0" y="29.0" font-size="5" font-weight="bold" fill="#22543d" text-anchor="middle" font-family="Arial">0</text>
<line x1="156.5" y1="33.0" x2="197.5" y2="33.0" stroke="#276749" stroke-width="0.3"/>
<text x="156.5" y="36.5" font-size="2.7" fill="#2d3748" font-family="Arial">Independent State deck. No Fail card in</text>
<text x="156.5" y="40.3" font-size="3.0" fill="#2d3748" font-family="Arial">this deck.</text>
<rect x="154.5" y="76.0" width="45" height="3" fill="#22543d" rx="1"/>
<rect x="154.5" y="74.0" width="45" height="2" fill="#22543d"/>
<line x1="153.0" y1="14.0" x2="156.0" y2="14.0" stroke="#ccc" stroke-width="0.3"/>
<line x1="154.5" y1="12.5" x2="154.5" y2="15.5" stroke="#ccc" stroke-width="0.3"/>
<line x1="198.0" y1="14.0" x2="201.0" y2="14.0" stroke="#ccc" stroke-width="0.3"/>
<line x1="199.5" y1="12.5" x2="199.5" y2="15.5" stroke="#ccc" stroke-width="0.3"/>
<line x1="153.0" y1="79.0" x2="156.0" y2="79.0" stroke="#ccc" stroke-width="0.3"/>
<line x1="154.5" y1="77.5" x2="154.5" y2="80.5" stroke="#ccc" stroke-width="0.3"/>
<line x1="198.0" y1="79.0" x2="201.0" y2="79.0" stroke="#ccc" stroke-width="0.3"/>
<line x1="199.5" y1="77.5" x2="199.5" y2="80.5" stroke="#ccc" stroke-width="0.3"/>
<rect x="10.5" y="82.0" width="45" height="65" fill="#f0fff4" stroke="#22543d" stroke-width="0.7" rx="1.5"/>
<rect x="10.5" y="82.0" width="45" height="9" fill="#22543d" rx="1.5"/>
<rect x="10.5" y="87.0" width="45" height="4" fill="#22543d"/>
<text x="12.5" y="88.5" font-size="3.2" font-weight="bold" fill="white" font-family="Arial">IndState</text>
<text x="33.0" y="97.0" font-size="5" font-weight="bold" fill="#22543d" text-anchor="middle" font-family="Arial">0</text>
<line x1="12.5" y1="101.0" x2="53.5" y2="101.0" stroke="#276749" stroke-width="0.3"/>
<text x="12.5" y="104.5" font-size="2.7" fill="#2d3748" font-family="Arial">Independent State deck. No Fail card in</text>
<text x="12.5" y="108.3" font-size="3.0" fill="#2d3748" font-family="Arial">this deck.</text>
<rect x="10.5" y="144.0" width="45" height="3" fill="#22543d" rx="1"/>
<rect x="10.5" y="142.0" width="45" height="2" fill="#22543d"/>
<line x1="9.0" y1="82.0" x2="12.0" y2="82.0" stroke="#ccc" stroke-width="0.3"/>
<line x1="10.5" y1="80.5" x2="10.5" y2="83.5" stroke="#ccc" stroke-width="0.3"/>
<line x1="54.0" y1="82.0" x2="57.0" y2="82.0" stroke="#ccc" stroke-width="0.3"/>
<line x1="55.5" y1="80.5" x2="55.5" y2="83.5" stroke="#ccc" stroke-width="0.3"/>
<line x1="9.0" y1="147.0" x2="12.0" y2="147.0" stroke="#ccc" stroke-width="0.3"/>
<line x1="10.5" y1="145.5" x2="10.5" y2="148.5" stroke="#ccc" stroke-width="0.3"/>
<line x1="54.0" y1="147.0" x2="57.0" y2="147.0" stroke="#ccc" stroke-width="0.3"/>
<line x1="55.5" y1="145.5" x2="55.5" y2="148.5" stroke="#ccc" stroke-width="0.3"/>
<rect x="58.5" y="82.0" width="45" height="65" fill="#f0fff4" stroke="#22543d" stroke-width="0.7" rx="1.5"/>
<rect x="58.5" y="82.0" width="45" height="9" fill="#22543d" rx="1.5"/>
<rect x="58.5" y="87.0" width="45" height="4" fill="#22543d"/>
<text x="60.5" y="88.5" font-size="3.2" font-weight="bold" fill="white" font-family="Arial">IndState</text>
<text x="81.0" y="97.0" font-size="5" font-weight="bold" fill="#22543d" text-anchor="middle" font-family="Arial">0</text>
<line x1="60.5" y1="101.0" x2="101.5" y2="101.0" stroke="#276749" stroke-width="0.3"/>
<text x="60.5" y="104.5" font-size="2.7" fill="#2d3748" font-family="Arial">Independent State deck. No Fail card in</text>
<text x="60.5" y="108.3" font-size="3.0" fill="#2d3748" font-family="Arial">this deck.</text>
<rect x="58.5" y="144.0" width="45" height="3" fill="#22543d" rx="1"/>
<rect x="58.5" y="142.0" width="45" height="2" fill="#22543d"/>
<line x1="57.0" y1="82.0" x2="60.0" y2="82.0" stroke="#ccc" stroke-width="0.3"/>
<line x1="58.5" y1="80.5" x2="58.5" y2="83.5" stroke="#ccc" stroke-width="0.3"/>
<line x1="102.0" y1="82.0" x2="105.0" y2="82.0" stroke="#ccc" stroke-width="0.3"/>
<line x1="103.5" y1="80.5" x2="103.5" y2="83.5" stroke="#ccc" stroke-width="0.3"/>
<line x1="57.0" y1="147.0" x2="60.0" y2="147.0" stroke="#ccc" stroke-width="0.3"/>
<line x1="58.5" y1="145.5" x2="58.5" y2="148.5" stroke="#ccc" stroke-width="0.3"/>
<line x1="102.0" y1="147.0" x2="105.0" y2="147.0" stroke="#ccc" stroke-width="0.3"/>
<line x1="103.5" y1="145.5" x2="103.5" y2="148.5" stroke="#ccc" stroke-width="0.3"/>
<rect x="106.5" y="82.0" width="45" height="65" fill="#f0fff4" stroke="#22543d" stroke-width="0.7" rx="1.5"/>
<rect x="106.5" y="82.0" width="45" height="9" fill="#22543d" rx="1.5"/>
<rect x="106.5" y="87.0" width="45" height="4" fill="#22543d"/>
<text x="108.5" y="88.5" font-size="3.2" font-weight="bold" fill="white" font-family="Arial">IndState</text>
<text x="129.0" y="97.0" font-size="5" font-weight="bold" fill="#22543d" text-anchor="middle" font-family="Arial">0</text>
<line x1="108.5" y1="101.0" x2="149.5" y2="101.0" stroke="#276749" stroke-width="0.3"/>
<text x="108.5" y="104.5" font-size="2.7" fill="#2d3748" font-family="Arial">Independent State deck. No Fail card in</text>
<text x="108.5" y="108.3" font-size="3.0" fill="#2d3748" font-family="Arial">this deck.</text>
<rect x="106.5" y="144.0" width="45" height="3" fill="#22543d" rx="1"/>
<rect x="106.5" y="142.0" width="45" height="2" fill="#22543d"/>
<line x1="105.0" y1="82.0" x2="108.0" y2="82.0" stroke="#ccc" stroke-width="0.3"/>
<line x1="106.5" y1="80.5" x2="106.5" y2="83.5" stroke="#ccc" stroke-width="0.3"/>
<line x1="150.0" y1="82.0" x2="153.0" y2="82.0" stroke="#ccc" stroke-width="0.3"/>
<line x1="151.5" y1="80.5" x2="151.5" y2="83.5" stroke="#ccc" stroke-width="0.3"/>
<line x1="105.0" y1="147.0" x2="108.0" y2="147.0" stroke="#ccc" stroke-width="0.3"/>
<line x1="106.5" y1="145.5" x2="106.5" y2="148.5" stroke="#ccc" stroke-width="0.3"/>
<line x1="150.0" y1="147.0" x2="153.0" y2="147.0" stroke="#ccc" stroke-width="0.3"/>
<line x1="151.5" y1="145.5" x2="151.5" y2="148.5" stroke="#ccc" stroke-width="0.3"/>
<rect x="154.5" y="82.0" width="45" height="65" fill="#f0fff4" stroke="#22543d" stroke-width="0.7" rx="1.5"/>
<rect x="154.5" y="82.0" width="45" height="9" fill="#22543d" rx="1.5"/>
<rect x="154.5" y="87.0" width="45" height="4" fill="#22543d"/>
<text x="156.5" y="88.5" font-size="3.2" font-weight="bold" fill="white" font-family="Arial">IndState</text>
<text x="177.0" y="97.0" font-size="5" font-weight="bold" fill="#22543d" text-anchor="middle" font-family="Arial">+1</text>
<line x1="156.5" y1="101.0" x2="197.5" y2="101.0" stroke="#276749" stroke-width="0.3"/>
<text x="156.5" y="104.5" font-size="3.0" fill="#2d3748" font-family="Arial">Independent State deck.</text>
<rect x="154.5" y="144.0" width="45" height="3" fill="#22543d" rx="1"/>
<rect x="154.5" y="142.0" width="45" height="2" fill="#22543d"/>
<line x1="153.0" y1="82.0" x2="156.0" y2="82.0" stroke="#ccc" stroke-width="0.3"/>
<line x1="154.5" y1="80.5" x2="154.5" y2="83.5" stroke="#ccc" stroke-width="0.3"/>
<line x1="198.0" y1="82.0" x2="201.0" y2="82.0" stroke="#ccc" stroke-width="0.3"/>
<line x1="199.5" y1="80.5" x2="199.5" y2="83.5" stroke="#ccc" stroke-width="0.3"/>
<line x1="153.0" y1="147.0" x2="156.0" y2="147.0" stroke="#ccc" stroke-width="0.3"/>
<line x1="154.5" y1="145.5" x2="154.5" y2="148.5" stroke="#ccc" stroke-width="0.3"/>
<line x1="198.0" y1="147.0" x2="201.0" y2="147.0" stroke="#ccc" stroke-width="0.3"/>
<line x1="199.5" y1="145.5" x2="199.5" y2="148.5" stroke="#ccc" stroke-width="0.3"/>
<rect x="10.5" y="150.0" width="45" height="65" fill="#f0fff4" stroke="#22543d" stroke-width="0.7" rx="1.5"/>
<rect x="10.5" y="150.0" width="45" height="9" fill="#22543d" rx="1.5"/>
<rect x="10.5" y="155.0" width="45" height="4" fill="#22543d"/>
<text x="12.5" y="156.5" font-size="3.2" font-weight="bold" fill="white" font-family="Arial">IndState</text>
<text x="33.0" y="165.0" font-size="5" font-weight="bold" fill="#22543d" text-anchor="middle" font-family="Arial">+1</text>
<line x1="12.5" y1="169.0" x2="53.5" y2="169.0" stroke="#276749" stroke-width="0.3"/>
<text x="12.5" y="172.5" font-size="3.0" fill="#2d3748" font-family="Arial">Independent State deck.</text>
<rect x="10.5" y="212.0" width="45" height="3" fill="#22543d" rx="1"/>
<rect x="10.5" y="210.0" width="45" height="2" fill="#22543d"/>
<line x1="9.0" y1="150.0" x2="12.0" y2="150.0" stroke="#ccc" stroke-width="0.3"/>
<line x1="10.5" y1="148.5" x2="10.5" y2="151.5" stroke="#ccc" stroke-width="0.3"/>
<line x1="54.0" y1="150.0" x2="57.0" y2="150.0" stroke="#ccc" stroke-width="0.3"/>
<line x1="55.5" y1="148.5" x2="55.5" y2="151.5" stroke="#ccc" stroke-width="0.3"/>
<line x1="9.0" y1="215.0" x2="12.0" y2="215.0" stroke="#ccc" stroke-width="0.3"/>
<line x1="10.5" y1="213.5" x2="10.5" y2="216.5" stroke="#ccc" stroke-width="0.3"/>
<line x1="54.0" y1="215.0" x2="57.0" y2="215.0" stroke="#ccc" stroke-width="0.3"/>
<line x1="55.5" y1="213.5" x2="55.5" y2="216.5" stroke="#ccc" stroke-width="0.3"/>
<rect x="58.5" y="150.0" width="45" height="65" fill="#f0fff4" stroke="#22543d" stroke-width="0.7" rx="1.5"/>
<rect x="58.5" y="150.0" width="45" height="9" fill="#22543d" rx="1.5"/>
<rect x="58.5" y="155.0" width="45" height="4" fill="#22543d"/>
<text x="60.5" y="156.5" font-size="3.2" font-weight="bold" fill="white" font-family="Arial">IndState</text>
<text x="81.0" y="165.0" font-size="5" font-weight="bold" fill="#22543d" text-anchor="middle" font-family="Arial">+2</text>
<line x1="60.5" y1="169.0" x2="101.5" y2="169.0" stroke="#276749" stroke-width="0.3"/>
<text x="60.5" y="172.5" font-size="3.0" fill="#2d3748" font-family="Arial">Independent State deck.</text>
<rect x="58.5" y="212.0" width="45" height="3" fill="#22543d" rx="1"/>
<rect x="58.5" y="210.0" width="45" height="2" fill="#22543d"/>
<line x1="57.0" y1="150.0" x2="60.0" y2="150.0" stroke="#ccc" stroke-width="0.3"/>
<line x1="58.5" y1="148.5" x2="58.5" y2="151.5" stroke="#ccc" stroke-width="0.3"/>
<line x1="102.0" y1="150.0" x2="105.0" y2="150.0" stroke="#ccc" stroke-width="0.3"/>
<line x1="103.5" y1="148.5" x2="103.5" y2="151.5" stroke="#ccc" stroke-width="0.3"/>
<line x1="57.0" y1="215.0" x2="60.0" y2="215.0" stroke="#ccc" stroke-width="0.3"/>
<line x1="58.5" y1="213.5" x2="58.5" y2="216.5" stroke="#ccc" stroke-width="0.3"/>
<line x1="102.0" y1="215.0" x2="105.0" y2="215.0" stroke="#ccc" stroke-width="0.3"/>
<line x1="103.5" y1="213.5" x2="103.5" y2="216.5" stroke="#ccc" stroke-width="0.3"/>
<rect x="106.5" y="150.0" width="45" height="65" fill="#f0fff4" stroke="#22543d" stroke-width="0.7" rx="1.5"/>
<rect x="106.5" y="150.0" width="45" height="9" fill="#22543d" rx="1.5"/>
<rect x="106.5" y="155.0" width="45" height="4" fill="#22543d"/>
<text x="108.5" y="156.5" font-size="3.2" font-weight="bold" fill="white" font-family="Arial">IndState</text>
<text x="129.0" y="165.0" font-size="5" font-weight="bold" fill="#22543d" text-anchor="middle" font-family="Arial">SUCCESS</text>
<line x1="108.5" y1="169.0" x2="149.5" y2="169.0" stroke="#276749" stroke-width="0.3"/>
<text x="108.5" y="172.5" font-size="2.7" fill="#2d3748" font-family="Arial">Attack against this independent region</text>
<text x="108.5" y="176.3" font-size="3.0" fill="#2d3748" font-family="Arial">automatically succeeds.</text>
<rect x="106.5" y="212.0" width="45" height="3" fill="#22543d" rx="1"/>
<rect x="106.5" y="210.0" width="45" height="2" fill="#22543d"/>
<line x1="105.0" y1="150.0" x2="108.0" y2="150.0" stroke="#ccc" stroke-width="0.3"/>
<line x1="106.5" y1="148.5" x2="106.5" y2="151.5" stroke="#ccc" stroke-width="0.3"/>
<line x1="150.0" y1="150.0" x2="153.0" y2="150.0" stroke="#ccc" stroke-width="0.3"/>
<line x1="151.5" y1="148.5" x2="151.5" y2="151.5" stroke="#ccc" stroke-width="0.3"/>
<line x1="105.0" y1="215.0" x2="108.0" y2="215.0" stroke="#ccc" stroke-width="0.3"/>
<line x1="106.5" y1="213.5" x2="106.5" y2="216.5" stroke="#ccc" stroke-width="0.3"/>
<line x1="150.0" y1="215.0" x2="153.0" y2="215.0" stroke="#ccc" stroke-width="0.3"/>
<line x1="151.5" y1="213.5" x2="151.5" y2="216.5" stroke="#ccc" stroke-width="0.3"/>
</svg>